<svg xmlns:xlink="http://www.w3.org/1999/xlink" xmlns="http://www.w3.org/2000/svg" version="1.1" viewBox="0 0 440 440" height="440px" width="440px">
    <title>戴口罩</title>
    <defs>
        <linearGradient id="linearGradient-1" y2="94.9598849%" x2="50%" y1="0.455533649%" x1="50%">
            <stop offset="0%" stop-color="#9ED7FC"></stop>
            <stop offset="100%" stop-color="#DDEBF8"></stop>
        </linearGradient>
        <linearGradient id="linearGradient-2" y2="94.9598849%" x2="50%" y1="0.455533649%" x1="50%">
            <stop offset="0%" stop-color="#9ED7FC"></stop>
            <stop offset="100%" stop-color="#DDEBF8"></stop>
        </linearGradient>
        <linearGradient id="linearGradient-3" y2="94.9598849%" x2="50%" y1="0.455533649%" x1="50%">
            <stop offset="0%" stop-color="#9ED7FC"></stop>
            <stop offset="100%" stop-color="#DDEBF8"></stop>
        </linearGradient>
    </defs>
    <g fill-rule="evenodd" fill="none" stroke-width="1" stroke="none" id="戴口罩">
        <g fill-rule="nonzero" transform="translate(29.000000, 79.270000)">
            <g transform="translate(89.793495, 298.081437)" id="脚">
                <path fill="#FFFFFF" d="M22.9008525,1.32207136 C34.92485,1.32207136 44.8017051,8.19292706 44.8017051,16.6741396 C44.8017051,25.1553521 34.92485,32.0262078 22.9008525,32.0262078 C10.7694979,32.0262078 1,25.1553521 1,16.6741396 C1,8.19292706 10.7694979,1.32207136 22.9008525,1.32207136 L22.9008525,1.32207136 Z"></path>
                <path fill="#000000" id="脚备份" d="M22.9008525,0.322071361 C18.8281672,0.322071361 14.9977674,1.07488643 11.6778571,2.40183694 L11.0417403,2.66578731 C4.43095853,5.51153548 0,10.6808945 0,16.6741396 C0,25.8067034 10.2886656,33.0262078 22.9008525,33.0262078 C35.4424042,33.0262078 45.8017051,25.7816967 45.8017051,16.6741396 C45.8017051,7.56658247 35.4424042,0.322071361 22.9008525,0.322071361 Z M22.9008525,2.32207136 C34.4591592,2.32207136 43.8017051,8.85554095 43.8017051,16.6741396 C43.8017051,24.4927382 34.4591592,31.0262078 22.9008525,31.0262078 C11.2726315,31.0262078 2,24.5196494 2,16.6741396 C2,8.82862975 11.2726315,2.32207136 22.9008525,2.32207136 Z"></path>
                <path fill="#FFFFFF" d="M109.323334,1 C121.347332,1 131.224187,7.8708557 131.224187,16.3520682 C131.224187,24.8332807 121.347332,31.7041364 109.323334,31.7041364 C97.2993369,31.7041364 87.4224818,24.8332807 87.4224818,16.3520682 C87.4224818,7.8708557 97.2993369,1 109.323334,1 Z"></path>
                <path fill="#000000" id="脚备份-2" d="M109.323334,0 C96.7817828,0 86.4224818,7.24451111 86.4224818,16.3520682 C86.4224818,25.4596253 96.7817828,32.7041364 109.323334,32.7041364 C121.864886,32.7041364 132.224187,25.4596253 132.224187,16.3520682 C132.224187,7.24451111 121.864886,0 109.323334,0 Z M109.323334,2 C120.881641,2 130.224187,8.53346959 130.224187,16.3520682 C130.224187,24.1706668 120.881641,30.7041364 109.323334,30.7041364 C97.7650277,30.7041364 88.4224818,24.1706668 88.4224818,16.3520682 C88.4224818,8.53346959 97.7650277,2 109.323334,2 Z"></path>
            </g>
            <g transform="translate(85.286721, 159.946609)" id="衣服">
                <path fill="url(#linearGradient-1)" d="M112.541824,0.751499842 C114.366895,3.32807073 120.056822,3.97221345 120.056822,3.97221345 C148.935888,12.453426 142.159732,27.8610644 142.159732,27.8610644 C142.181026,31.2360209 132.685021,39.6670284 132.685021,39.6670284 C126.277141,44.9445554 126.472057,51.3295983 126.472057,51.3295983 L126.194554,57.6794528 L136.16039,142.462899 C112.005038,164.79318 87.8496861,149.977897 87.8496861,149.977897 L68.5254045,95.2257657 L51.992408,152.876539 C28.0517701,162.323966 2.60813263,147.508683 2.60813263,147.508683 L8.40541713,101.667193 L12.8521854,60.6850062 C11.9759275,53.1468529 8.67366252,38.9218453 8.67366252,38.9218453 C-1.95469239,31.514204 0.17415435,23.8249191 0.17415435,23.8249191 C11.0172235,-7.20128864 22.3618428,3.97221345 22.3618428,3.97221345 C31.0577695,2.79128513 28.0517701,0 28.0517701,0 L112.541824,0.751499842 Z"></path>
                <path fill="#000000" id="衣服备份" d="M27.3677282,0.729441539 C27.5031862,0.864519018 27.5921546,1.0678149 27.5269661,1.19975466 C27.4192123,1.41784528 27.0783496,1.69565138 26.4093638,1.98574097 L26.2188794,2.06488832 C25.4324085,2.37825723 24.3509349,2.65261153 22.95282,2.87468841 L22.674,2.917 L22.5161171,2.79491824 C22.2324376,2.58130125 21.8801966,2.34845057 21.4628201,2.11768745 C18.8896339,0.694999581 15.8593737,0.494839795 12.6405982,2.2894763 C9.05843679,4.28671961 5.61525962,8.59946595 2.37186632,15.6320164 L1.93082946,16.6078969 C1.49104234,17.6007115 1.05502161,18.6444428 0.622921421,19.7401158 C0.152960301,20.9317925 -0.311363225,22.1830784 -0.76985668,23.4950052 L-0.800077927,23.5980068 C-0.904301625,24.0141524 -0.988360538,24.6136845 -0.999502945,25.3754573 L-0.999502945,25.622828 L-0.993443444,25.908712 C-0.850992759,30.2978907 1.57775355,34.9411033 7.33232688,39.1902896 L7.784,39.517 L8.17403193,41.2410531 L8.38311779,42.1823591 C8.89629613,44.5053406 9.40946921,46.9182078 9.88827003,49.2952926 L10.2154024,50.9424008 L10.5541446,52.705009 L10.7634521,53.8309036 L11.0510195,55.4387419 L11.2245476,56.4543995 L11.3830587,57.4232836 L11.5261499,58.3438636 L11.6534182,59.2146088 L11.7644605,60.0339884 L11.845,60.694 L7.41125231,101.559321 L1.61603451,147.383219 C1.56569016,147.781312 1.75817942,148.170946 2.1049419,148.372859 L2.42333545,148.55222 L2.79819005,148.755903 C2.98299034,148.855033 3.1779751,148.957846 3.382934,149.064033 L4.02752284,149.392412 L4.7306946,149.739189 C6.81657416,150.751752 9.1776615,151.763318 11.7687307,152.707165 C23.9098328,157.129795 36.472454,158.563912 48.2517101,155.199259 C49.6425918,154.801964 51.0122759,154.338364 52.3594795,153.806732 L52.4644662,153.758115 C52.7012552,153.631343 52.8787266,153.413504 52.9536613,153.152206 L68.623,98.509 L86.9066958,150.310717 C86.9830231,150.526978 87.1313638,150.710432 87.3268576,150.830335 L87.7228624,151.058713 L88.1197391,151.274123 L88.566669,151.505582 C88.6452827,151.545395 88.7259477,151.585801 88.808647,151.626762 C89.9822228,152.208041 91.3330913,152.78787 92.8441942,153.328323 C98.5242344,155.359816 104.826683,156.298887 111.475219,155.536998 C120.084987,154.550362 128.471228,150.768781 136.347605,143.646687 L136.867497,143.170005 L136.940623,143.093111 C137.100851,142.901005 137.186221,142.62408 137.153553,142.346158 L127.197,57.643 L127.471103,51.3732589 L127.47162,51.222775 L127.482757,50.921983 L127.512748,50.5592665 C127.532929,50.3632742 127.561239,50.1459663 127.599269,49.9102017 C127.731351,49.0913569 127.956519,48.2174676 128.294642,47.3112704 C129.220665,44.8294496 130.839071,42.4828509 133.320761,40.4389321 L133.766531,40.0373368 L134.285485,39.5588139 L134.853187,39.0257417 C135.976846,37.9612465 137.100721,36.8430492 138.15183,35.7222028 C138.79685,35.0343868 139.395081,34.3657269 139.937423,33.7222979 L140.181853,33.4296181 C141.941864,31.3019067 142.984939,29.5827293 143.139668,28.2181592 L143.152,28.074 L143.163193,28.0459494 C143.257371,27.7957161 143.367788,27.448876 143.475801,27.0145283 C144.605746,22.4707419 143.522102,17.3024174 138.60318,12.4812033 C134.733991,8.68887052 128.747406,5.48223445 120.338602,3.01273443 L120.169311,2.97856048 L119.857039,2.93599919 C119.595785,2.89716604 119.303383,2.84732677 118.98793,2.78553362 C118.088699,2.60938583 117.190714,2.37408575 116.360976,2.07434603 C115.027386,1.59259103 114.020905,0.994906561 113.469089,0.319409085 L113.357848,0.173482501 C113.172185,-0.0886308725 112.871913,-0.245603723 112.550718,-0.248460604 L28.0606643,-1.00079338 C27.1474857,-1.00808275 26.7021212,0.111395496 27.3677282,0.729441539 Z M29.554,1.012 L112.058,1.747 L112.237881,1.93946124 C113.060661,2.77759956 114.237001,3.43356591 115.681462,3.95537243 C116.617301,4.29344109 117.611004,4.55382206 118.603463,4.74823195 L119.10428,4.84051937 L119.562986,4.91426435 L119.851,4.954 L119.775042,4.93169247 C127.889882,7.31486115 133.589944,10.3680246 137.203224,13.9095317 C141.57417,18.193655 142.504746,22.6319385 141.534915,26.5318704 L141.449974,26.8514852 C141.436171,26.9000544 141.422599,26.9462425 141.409342,26.9900028 L141.334226,27.2230577 L141.270608,27.3956037 C141.261183,27.4191944 141.252402,27.4401705 141.244347,27.4584853 C141.187691,27.5873103 141.158864,27.7266433 141.159752,27.8673736 C141.162633,28.3239855 140.850209,29.047599 140.266264,29.9619244 L139.999506,30.3652319 C139.763567,30.710681 139.493794,31.0790655 139.19218,31.46691 L138.815088,31.9414419 C138.684381,32.1025845 138.548708,32.2666183 138.408195,32.4333209 C137.890042,33.048052 137.315039,33.6907498 136.69296,34.3541024 C135.875766,35.225515 135.010395,36.0981825 134.135278,36.944477 L133.195006,37.8404542 L132.66415,38.3344599 L132.021092,38.9192327 C129.287188,41.1699842 127.46629,43.8101844 126.420829,46.6121088 C125.740625,48.4351149 125.483067,50.0318492 125.471672,51.2164153 L125.472523,51.360111 L125.195507,57.6357921 L125.201391,57.7961937 L135.107,142.071 L135.453284,141.755792 C127.775208,148.852698 119.614878,152.591145 111.247519,153.550002 C104.928794,154.274096 98.9271184,153.37984 93.5177217,151.445145 C92.0822218,150.931732 90.8024485,150.382418 89.6963376,149.834555 L89.4717197,149.722078 L89.0589181,149.508353 L88.669,149.296 L69.4683948,94.8929456 L69.4206911,94.7786078 C69.0322358,93.97988 67.820896,94.0548266 67.5641512,94.950099 L51.168,152.121 L51.6253364,151.946347 C50.3391117,152.453915 49.0311131,152.896636 47.7023959,153.276174 C36.3916807,156.506992 24.233134,155.119004 12.4532671,150.82796 C10.1816737,150.000489 8.09267082,149.120067 6.22019184,148.235077 L5.25756392,147.770425 L4.60775295,147.444786 C4.50431114,147.392087 4.40331723,147.340199 4.30479802,147.289162 L3.685,146.962 L9.39751525,101.792657 L13.8463502,60.7928779 L13.8454969,60.5695406 C13.8142453,60.3006936 13.7797833,60.0218195 13.7421895,59.7331939 L13.6200908,58.8383377 C13.5982013,58.6844111 13.5755484,58.5281155 13.552142,58.3694853 L13.4027396,57.3899651 C13.3763583,57.2221345 13.3492431,57.0520382 13.3214038,56.8797107 L13.1457575,55.8192464 L12.9532039,54.7068862 L12.7442141,53.5442832 L12.5192591,52.3330908 L12.1784299,50.5596195 L11.8488928,48.900377 C11.4637119,46.9880833 11.0566308,45.0538002 10.6451723,43.1613912 L9.92974496,39.9315764 L9.64775926,38.6957136 C9.59180271,38.4546723 9.44846363,38.2429379 9.24545519,38.1014471 C3.33716036,33.9835447 1.04034183,29.6203493 1.00044564,25.614774 L1.00044564,25.3912751 L1.00649109,25.1773493 C1.02229622,24.7630541 1.06515409,24.4310492 1.11411056,24.1962375 L1.13790029,24.0917407 C1.56811405,22.8673561 2.02329963,21.6406956 2.48346509,20.4738577 C3.2430919,18.547678 4.01119237,16.7946701 4.78577967,15.2079191 L5.20891321,14.3588653 C5.56204069,13.6649914 5.91643379,13.0052084 6.27190591,12.3788669 L6.69897844,11.6432673 C8.97933355,7.80523672 11.3008283,5.32632859 13.6145487,4.03630788 C16.1803577,2.60573445 18.4877723,2.75814764 20.495102,3.86797931 C20.8343618,4.0555525 21.133084,4.25585793 21.3868236,4.45412776 L21.5901395,4.62084562 L21.6601296,4.68467303 C21.8807443,4.90196005 22.1895743,5.00478696 22.49641,4.96311791 C26.477002,4.42254369 28.625829,3.49075659 29.3200479,2.08567662 C29.495262,1.73104795 29.5676809,1.37018519 29.554,1.012 Z"></path>
            </g>
            <g transform="translate(96.975087, 156.314131)" id="衣服线条">
                <path fill="#64BEF8" id="形状-16" d="M11.6396905,1.59269241 C11.6396905,1.59269241 52.4353962,17.3741891 103.107957,1.27062105 C103.107957,1.27062105 103.322671,4.7060489 105.791885,6.42376282 C105.791885,6.42376282 61.5607514,24.9965446 10.351405,7.06790554 C10.351405,7.06790554 11.7470476,4.38397753 11.6396905,1.59269241 Z"></path>
                <path fill="#64BEF8" id="形状-14" d="M54.5825386,90.484388 C60.4871802,53.87561 54.5825386,13.4019756 54.5825386,13.4019756 L60.8092516,13.4019756 C65.3182506,45.1796832 60.4871802,91.1285307 60.4871802,91.1285307 L54.7023714,109.77495 L55.3419719,100.719058 L54.5825386,90.484388 Z"></path>
                <path fill="#64BEF8" id="形状-13" d="M1.82686364,65.4783683 C1.82686364,65.4783683 57.6958951,85.4386034 113.092169,61.4979655 L113.736312,67.29525 C113.736312,67.29525 73.8088844,91.2674923 1.5575424,71.5137821 L1.82686364,65.4783683 Z"></path>
                <path fill="#000000" id="路径-2" d="M12.7209471,0.326775377 L11.7874182,0 L11.2588563,1.45940499 L10.5495001,3.44100947 L10.2289091,4.34995497 L9.65586993,6.0042399 L9.10704006,7.63234808 L9.96641881,7.99082786 C14.1668447,9.74298633 19.0027298,11.1774707 24.3714835,12.3325169 C30.2979093,13.6075419 36.5932268,14.4901928 43.2042761,15.0895339 C45.1075926,15.2620837 46.9360352,15.402586 48.8324951,15.5275785 L52.0554056,15.7227762 L53.7809131,15.823621 L53.9311685,16.4846731 C55.124723,21.8425583 55.9255627,28.1618246 56.3794642,35.2634489 C56.9696096,44.4967114 56.949111,54.1296552 56.5389224,64.1351972 L56.419416,66.8153771 L56.1389131,72.290621 L54.7618926,72.2977882 C35.1227058,72.323088 17.4971901,69.5665693 1.88215741,64.0327197 L0.71137896,63.6178046 L0.555978142,64.8501711 C0.518708617,65.1457276 0.483019617,65.4510314 0.448908057,65.7660922 L0.351302615,66.740555 C0.273903209,67.5770156 0.206343535,68.4745168 0.148575414,69.4332079 L0.0839505313,70.6130178 L0.0287070386,71.8516274 L0,72.5716054 L0.673882931,72.8267018 L1.46970885,73.1205409 L2.30690219,73.4146474 C2.44866658,73.4632273 2.59154711,73.5115883 2.73554387,73.5597304 L3.6129198,73.8459573 C3.9098438,73.9404911 4.21123337,74.0341498 4.5170892,74.1269339 L5.44805615,74.4026625 L6.4058247,74.6731454 L7.39039893,74.9383849 C7.55672867,74.9821547 7.72417547,75.0257061 7.89273944,75.0690391 L8.9175298,75.3264177 C9.09056273,75.3688776 9.26471299,75.4111193 9.43998066,75.4531427 L10.5049963,75.7026656 L11.5968339,75.9469541 L12.7154974,76.1860106 L13.8609911,76.4198373 C14.0541428,76.4583727 14.2484125,76.4966903 14.4438005,76.5347902 L15.6295468,76.7607764 C15.8294078,76.7980054 16.0303871,76.8350167 16.2324848,76.8718104 L17.4584931,77.0899614 L18.7113476,77.3028916 L19.9910526,77.5106035 L21.297612,77.7130992 L22.63103,77.9103811 C22.8555048,77.9428271 23.0810988,77.9750559 23.3078122,78.0070676 L24.6815255,78.1965329 L26.0821076,78.3807901 L27.5095624,78.5598413 L28.9638941,78.7336889 L31.1957945,78.9847085 L33.4881906,79.2240328 L35.0500702,79.3770886 L36.6388469,79.5249522 L38.2545249,79.6676258 L39.8971081,79.8051117 L41.5666007,79.9374121 L43.2630067,80.0645294 L44.9863302,80.1864658 L46.7365752,80.3032236 L48.5137458,80.414805 L50.3178462,80.5212124 L53.0744987,80.671127 L54.7469131,80.754621 L53.5897183,90.3647724 L53.5827299,90.4648279 L53.2564071,107.144686 L53.2658473,107.302703 C53.5991612,109.686863 53.5758118,111.679548 53.2075621,113.275812 L51.3232092,121.443977 L55.1429437,113.811349 L55.2794819,113.51034 L55.4199138,113.173577 L55.5641827,112.801512 L55.7122316,112.3946 L55.8640037,111.953295 L56.0194423,111.47805 L56.1784906,110.96932 L56.3410917,110.427557 L56.5071887,109.853216 L56.762765,108.931612 L56.9373535,108.277811 L57.2054006,107.239144 L57.3881254,106.508718 L57.7629834,104.958753 L58.1500073,103.292995 L58.4479856,101.969872 L58.855206,100.110213 L59.2733422,98.144744 L59.8022255,95.5857248 L60.2183157,93.5159731 L60.7969268,90.5609047 L61.576228,86.4483455 L62.1619229,83.2385045 L62.5490577,81.0165904 L62.5949131,80.740621 L63.9589684,80.6253752 C84.9420868,78.7859274 102.041546,74.5465081 115.259461,67.89379 L115.976902,67.5326942 L115.779077,66.7542491 C115.399528,65.2607193 115.077523,63.5613124 114.813871,61.6569685 L114.557803,59.6895586 L113.334468,60.2264002 C102.822395,64.8394598 91.7135376,68.106416 80.8003639,70.1630365 L79.1294792,70.4686857 L78.0704475,70.6522592 L77.0194814,70.8265955 L75.9791636,70.9916298 L74.9520769,71.147297 L73.4419048,71.3630923 L72.4591952,71.4950574 L71.027695,71.6749951 L70.1055043,71.782852 L69.2120408,71.8809519 L67.931359,72.0096653 L67.1210132,72.0830884 L66.3484342,72.1465271 L65.6162046,72.1999163 L64.9269072,72.2431911 L64.2831248,72.2762864 L63.6874399,72.2991374 L63.1424353,72.311679 L62.8569131,72.313621 L62.8878933,72.0434057 C63.0003488,71.0100427 63.1003696,69.8858649 63.1886189,68.6857599 L63.2729689,67.4608973 L63.3496186,66.1887249 C63.36176,65.9729375 63.3735868,65.7553167 63.3851019,65.5359314 L63.4504774,64.1989976 L63.5085212,62.8230248 L63.5593804,61.4113216 L63.6032025,59.9671962 L63.6401349,58.493957 L63.6703249,56.9949123 L63.6939199,55.4733705 L63.7110673,53.93264 L63.7219145,52.3760291 L63.7266947,50.0185741 L63.7181284,47.6439976 L63.7000755,45.560976 L63.6661341,43.0804173 L63.6192317,40.616715 L63.559934,38.1825695 L63.469243,35.2007997 L63.3841246,32.879592 L63.2629476,30.0791789 L63.1263811,27.4142467 L63.0375137,25.8906372 L62.9114371,23.9581787 L62.7772084,22.1505287 L62.7072137,21.2974758 L62.6353932,20.4803876 L62.5243936,19.3256618 L62.4483178,18.6054309 L62.3312668,17.6034325 L62.2513777,16.9899809 L62.1700871,16.4220192 L62.0999131,15.976621 L62.3566531,15.9901516 L62.9524216,16.0099506 L63.571578,16.0182521 C63.8870048,16.0195287 64.2112059,16.0164941 64.5441868,16.009149 L65.2218567,15.9887114 L65.9229496,15.9567799 L66.6474753,15.9133557 L67.3954438,15.8584397 C67.5220594,15.8483294 67.6496521,15.8377403 67.7782223,15.8266725 L68.5613738,15.7545208 L69.3679932,15.6708798 L70.1980903,15.5757506 L71.0516752,15.4691343 L71.9287579,15.3510318 C72.076897,15.330391 72.2260156,15.3092716 72.376114,15.2876736 L73.288462,15.1523439 L74.7010922,14.9278181 L75.6722657,14.7637814 L76.6669868,14.5882638 L77.6852657,14.4012662 L78.7271121,14.2027897 L79.7925362,13.9928354 L80.8815478,13.7714041 L82.5593139,13.4177404 L83.7073382,13.1676215 L84.8789851,12.9060294 L86.0742645,12.632965 L87.9115164,12.2018603 L89.8019976,11.7449489 L91.7457418,11.2622342 L93.7427827,10.7537198 L95.793154,10.219409 L97.1897129,9.84887227 L98.6099991,9.46687309 L100.784939,8.87238449 L102.264587,8.46173369 L103.767998,8.03962405 L106.06769,7.3849765 L107.495331,6.97533787 L106.578754,5.80664231 C106.432228,5.61981308 106.278473,5.39920665 106.117764,5.14508588 L105.871521,4.73880184 C105.662031,4.37934012 105.441894,3.96771763 105.211653,3.5044478 L104.930549,2.92376614 C104.882901,2.82286503 104.834858,2.71990624 104.786424,2.61489388 L104.491159,1.96020973 L104.186716,1.25643702 L103.675881,0.0331219301 L102.797464,0.320045435 C71.7175562,10.4718934 41.7034288,10.4718934 12.7209471,0.326775377 Z M102.545913,2.50362105 L102.702644,2.86110252 C103.146789,3.86186419 103.567707,4.71974543 103.967888,5.43710546 L104.198913,5.83862105 L102.550572,6.30462946 L100.373725,6.91091887 L97.5515768,7.68067932 L95.4952433,8.22903493 L94.1530759,8.58081446 L92.1829312,9.08779994 L90.2645432,9.5699678 L89.0143875,9.87762712 L86.5831667,10.459864 L84.820243,10.8675991 L83.6737844,11.1256421 L82.5503959,11.372662 L81.4500872,11.6086598 L80.372868,11.8336365 L78.8003529,12.150439 L77.7808993,12.3478672 L76.7845687,12.5342776 L75.8113709,12.7096715 L74.8613153,12.8740496 L73.4796447,13.0999645 L72.5874869,13.2368078 L71.7185049,13.3626388 L70.4585079,13.5307396 L69.6475079,13.6290444 L68.8597174,13.7163405 L68.095146,13.7926288 L67.3538034,13.8579104 L66.6356993,13.9121862 L65.9408431,13.9554572 L65.2692445,13.9877244 L64.6209131,14.0089888 L63.9958586,14.0192514 C63.8936231,14.020045 63.7923579,14.0203803 63.6920631,14.0202573 L63.1019419,14.014019 C62.8127056,14.00815 62.5322072,13.9981562 62.2604521,13.9840382 L61.7286009,13.9503034 C61.6419026,13.9437645 61.556176,13.9367674 61.4714216,13.9293122 L60.9745614,13.8790825 L59.5349298,13.7137313 L59.891138,15.1183651 C59.9564669,15.3759761 60.0209277,15.6829586 60.0843653,16.0358657 L60.1787352,16.5992388 C60.1943291,16.6987313 60.2098543,16.8009863 60.2253083,16.9059501 L60.3171582,17.5678062 L60.4071829,18.2920862 L60.4952661,19.0762047 L60.5812917,19.9175765 L60.6651433,20.8136165 L60.7865903,22.2545239 L60.8644985,23.2759238 L60.9764856,24.8927529 L61.0822736,26.6035015 L61.1491614,27.7918693 L61.2130034,29.0155161 L61.3310854,31.5583054 L61.3850929,32.8722776 L61.4594853,34.8891868 L61.5255865,36.9534814 L61.5830041,39.0564363 L61.6313458,41.1893264 L61.6702193,43.3434264 L61.6992324,45.5100114 L61.7179928,47.6803561 L61.726108,49.8457354 L61.7231859,51.9974243 L61.7088342,54.1266974 L61.6826605,56.2248298 L61.6584499,57.6019756 L61.6286945,58.9588179 L61.593278,60.2927717 L61.5520843,61.6012515 L61.5049971,62.8816723 L61.4230617,64.7440375 L61.3607323,65.9430002 L61.2921024,67.1048556 L61.2170561,68.2270183 L61.1354769,69.3069032 C61.1071821,69.6595313 61.0777792,70.0046822 61.0472487,70.3419251 L60.9522552,71.3294987 C60.9194502,71.6504946 60.8854983,71.9631516 60.8503802,72.2670388 L60.7415074,73.1519601 L60.6039024,74.2019589 L61.6600562,74.2792355 C61.7683476,74.287159 61.8844874,74.2936696 62.008184,74.2987758 L62.4016532,74.309889 L62.838715,74.3126254 L63.3176209,74.3070349 L63.8366224,74.2931676 L64.3939708,74.2710735 L64.9879176,74.2408027 L65.9436349,74.1801746 L66.6214277,74.129681 L67.6947176,74.0389533 L68.8306824,73.930391 L70.0234208,73.8041631 L71.2670314,73.6604385 L72.1214531,73.5549852 L72.9941132,73.4418806 L74.3334755,73.2579872 L75.2440817,73.1259737 L76.6321666,72.9139514 L78.0416166,72.685277 L78.9902051,72.5236597 L79.9439177,72.3547665 L81.1289468,72.1363151 C91.4061405,70.2023678 101.855684,67.2086963 111.842107,63.0405877 L112.925913,62.581621 C113.118087,63.8704499 113.337214,65.0657618 113.58429,66.1712677 L113.650913,66.459621 L113.005496,66.7738516 C100.003079,73.0265306 83.2463279,77.0136314 62.7372446,78.722526 L60.8662281,78.8725625 L60.6132744,80.4671497 L60.3879824,81.7840301 L59.8422037,84.8247914 L59.1652985,88.4480774 L58.6697011,91.0252621 L58.1183669,93.8196115 L57.8426483,95.1856553 L57.532011,96.6980842 L57.0953117,98.7765888 L56.810218,100.10147 L56.5303134,101.375773 L56.1208567,103.188743 L55.8552662,104.329298 L55.5959379,105.413433 L55.2649131,106.747621 L55.5809131,90.553621 L56.9904658,78.8584918 L54.0797901,78.7196573 L51.3249094,78.5746365 L48.6305113,78.418136 L46.8678542,78.3074285 L45.1320885,78.1916246 L43.4232182,78.0707266 L41.7412474,77.9447368 L40.0861802,77.8136574 L38.4580207,77.6774908 L36.8567728,77.5362391 L35.2824407,77.3899046 L32.9714185,77.1608778 L31.4643936,77.0018465 L29.9842987,76.8377403 L27.814659,76.5820709 L26.4019069,76.4052878 C26.1686934,76.3754016 25.9366026,76.3453043 25.7056346,76.314996 L24.3333004,76.1306135 L22.9879165,75.9411675 L21.6694869,75.7466605 L20.3780158,75.5470945 L19.1135073,75.342472 L17.8759653,75.1327952 L16.665394,74.9180663 C16.4658799,74.8818573 16.2674897,74.8454378 16.0702236,74.8088081 L14.9001159,74.5865054 L13.756989,74.3591563 L12.640847,74.1267632 C12.4570723,74.0876108 12.2744222,74.0482484 12.0928966,74.0086758 L11.0172396,73.7687209 L9.96857756,73.5237275 L8.94691467,73.273698 L7.95225496,73.0186347 L6.9846025,72.7585398 C6.82557792,72.7147714 6.66767881,72.6707936 6.51090525,72.6266062 L5.58377128,72.3589682 L4.68365472,72.0863043 C4.53588697,72.0404416 4.38924511,71.9943696 4.24372924,71.9480883 L3.38414641,71.6678898 C3.10212318,71.5736535 2.82460453,71.4785805 2.55159116,71.3826712 L2.05791309,71.205621 L2.08123603,70.7173508 C2.12033478,69.927774 2.16547106,69.1776664 2.2166202,68.4671044 L2.29785048,67.4309302 C2.31213945,67.2631809 2.32680344,67.0979055 2.34184208,66.9351054 L2.40091309,66.330621 L3.08681762,66.5652179 C19.0838892,71.9572853 37.0914367,74.5279922 57.1062722,74.281826 L58.0769178,74.2698878 L58.0948932,73.2625167 L58.4604867,65.9952579 C58.9455478,55.2883861 59.0056754,44.9971387 58.3753915,35.1358789 C57.8751712,27.3095623 56.9572703,20.4046801 55.5542093,14.6362122 L55.3820192,13.9282791 L54.1119476,13.8404064 L50.3915665,13.6223817 C47.9855968,13.4756576 45.7424403,13.3114355 43.3848505,13.0977023 C36.8485175,12.5051349 30.6303454,11.6333004 24.7921429,10.3772558 L23.8699846,10.1748554 C19.5927279,9.2172033 15.683002,8.0755149 12.2018811,6.73279313 L11.6009131,6.49662105 L11.9668476,5.43894584 L12.4356287,4.10623953 L12.9949131,2.53762105 L13.8256776,2.8196728 C42.0970921,12.3063618 71.3452336,12.3054801 101.539893,2.8229838 L102.545913,2.50362105 Z"></path>
            </g>
            <g transform="translate(67.863777, 11.832167)" id="帽子">
                <path fill="url(#linearGradient-2)" d="M87.6873065,1 C135.582043,1 174.374613,35.6749226 174.374613,78.4767802 C174.374613,121.278638 135.582043,155.95356 87.6873065,155.95356 C39.7925697,155.95356 1,121.278638 1,78.4767802 C1,35.6749226 39.7925697,1 87.6873065,1 Z"></path>
                <path fill="#000000" id="帽子备份" d="M87.6873065,0 C39.265319,0 0,35.0946504 0,78.4767802 C0,121.85891 39.265319,156.95356 87.6873065,156.95356 C136.109294,156.95356 175.374613,121.85891 175.374613,78.4767802 C175.374613,35.0946504 136.109294,0 87.6873065,0 Z M87.6873065,2 C135.051652,2 173.374613,36.2523875 173.374613,78.4767802 C173.374613,120.701173 135.051652,154.95356 87.6873065,154.95356 C40.3229611,154.95356 2,120.701173 2,78.4767802 C2,36.2523875 40.3229611,2 87.6873065,2 Z"></path>
                <path fill="#64BEF8" id="蓝色" d="M95.4891641,1.6501548 C86.2786378,30.1486068 88.6625387,41.8513932 88.6625387,41.8513932 C83.244582,41.8513932 79.5603715,41.7430341 79.5603715,41.7430341 C79.0185759,25.1640867 86.3869969,1.3250774 86.3869969,1.3250774 L95.4891641,1.6501548 Z"></path>
                <path fill="#000000" id="蓝色备份" d="M95.5248556,0.650791944 L86.4226884,0.325714545 C85.9706749,0.309571206 85.5641008,0.59884135 85.4311642,1.03116608 L85.1449772,1.98735907 L84.8860674,2.87933025 L84.6030853,3.87695597 L84.3066116,4.94638633 C84.2561616,5.13043252 84.2052145,5.31733864 84.1538027,5.5070387 C83.2953721,8.67448959 82.4544342,12.0727368 81.6871463,15.5880861 C79.5186814,25.5229643 78.3246952,34.5476736 78.5609051,41.7756964 C78.5769323,42.2661295 78.9447176,42.6663753 79.4201007,42.7332228 L79.5523365,42.7432169 L82.2756973,42.8006117 L83.7759874,42.8219938 L85.3438851,42.8379557 L86.9743993,42.8479411 L88.6625387,42.8513932 C89.2950377,42.8513932 89.7686649,42.2715596 89.6424152,41.6517887 L89.6311377,41.5923827 L89.6040169,41.42367 L89.5721655,41.1879194 L89.5372117,40.8845263 L89.5190804,40.7072749 C89.4997894,40.5108441 89.4821414,40.310806 89.4661729,40.1071473 L89.4233424,39.4852964 C89.4107693,39.2743833 89.3999123,39.0598364 89.3908078,38.8416423 L89.3687883,38.1761053 C89.3660068,38.0633545 89.3636725,37.9496885 89.3617901,37.8351058 L89.3559539,37.1365948 C89.3557832,36.7818253 89.3597611,36.418775 89.3680107,36.0473988 L89.390242,35.293532 L89.4240838,34.5173833 L89.4697549,33.7188729 C89.4783647,33.5839199 89.4874766,33.4480318 89.497095,33.311207 L89.5609211,32.4790043 L89.6371243,31.6242402 L89.7259236,30.7468351 C89.7417854,30.5987097 89.7581811,30.4496377 89.7751153,30.2996172 L89.8832197,29.3881008 C89.9023263,29.2342802 89.9219806,29.079508 89.9421871,28.9237824 L90.0700893,27.9779751 C90.092523,27.8184294 90.115518,27.6579271 90.1390789,27.4964664 L90.2872719,26.5161887 C90.3131148,26.350888 90.3395326,26.1846256 90.3665301,26.0173999 L90.5355068,25.0024722 L90.7186131,23.9643449 L90.9160681,22.902938 L91.1280909,21.8181717 L91.3549004,20.7099663 L91.5967159,19.5782419 L91.8537562,18.4229187 C91.8978772,18.2283939 91.9426417,18.0328824 91.9880542,17.8363827 L92.2683427,16.6455117 L92.5644039,15.4308424 L92.8764566,14.1922951 L93.2047201,12.9297898 C93.2607938,12.7173713 93.317552,12.5039513 93.3749994,12.289528 L93.7279897,10.9909362 L94.0977384,9.66818702 C94.1607719,9.44571127 94.2245128,9.22222563 94.2889657,8.99772845 L94.6842627,7.63859348 L95.0968658,6.25510156 L95.526994,4.84717289 L95.9748664,3.41472767 L96.4407021,1.95768608 C96.6448401,1.32605906 96.1882286,0.674483837 95.5248556,0.650791944 Z M87.1222229,2.35183282 L94.1342229,2.60183282 L94.0655292,2.81937857 C93.9068539,3.32129356 93.751377,3.81889187 93.5990592,4.31218781 L93.1515439,5.77918288 L92.7227471,7.22044975 L92.3124331,8.63607438 C92.2455745,8.86987974 92.1794763,9.10262026 92.1141334,9.33429772 L91.7311011,10.7116202 L91.3659617,12.0635153 C91.3065831,12.286717 91.2479402,12.5088628 91.1900282,12.7299545 L90.8512858,14.0438698 L90.5298466,15.3325727 L90.2254745,16.5961492 L89.9379337,17.8346851 L89.6669883,19.0482666 C89.6232005,19.2484554 89.5800945,19.447608 89.5376651,19.6457262 L89.2911703,20.822037 L89.0606811,21.9736082 L88.8459615,23.1005258 L88.6467755,24.2028757 L88.4628874,25.2807438 L88.2940611,26.3342162 C88.2402697,26.6813172 88.1889494,27.0243666 88.1400607,27.3633788 L88.0006504,28.3683175 L87.8755941,29.3491184 L87.764656,30.3058673 L87.6676001,31.2386504 C87.6375356,31.5455933 87.6097455,31.8485562 87.5841905,32.1475534 L87.5141914,33.0326624 C87.5036293,33.1782025 87.4936161,33.3227548 87.4841469,33.466321 L87.433821,34.3159002 L87.3963157,35.1419003 L87.371395,35.9444072 C87.3620415,36.3398017 87.3573188,36.7264186 87.3570942,37.104306 L87.362603,37.8484562 C87.3702215,38.336816 87.3856792,38.8097143 87.4086616,39.2672657 L87.4487395,39.9420969 C87.4639538,40.1632135 87.4810099,40.3805077 87.4998686,40.5939938 L87.5232229,40.8488328 L85.3605256,40.8380247 L83.8006968,40.8221463 L80.5382229,40.7668328 L80.5334508,40.4121825 C80.47606,33.6016854 81.634381,25.2086119 83.6411428,16.0145808 C84.4009157,12.5336613 85.233986,9.16720747 86.0841663,6.03019856 L86.3835772,4.93780709 L86.8083407,3.43147642 L87.1222229,2.35183282 Z"></path>
            </g>
            <g transform="translate(97.662539, 52.791920)" id="脸">
                <path fill="#F8E3DE" id="椭圆-5" d="M57.996904,1 C89.4210526,1 114.885449,22.996904 114.885449,49.9783282 C114.885449,77.0681115 89.4210526,99.0650155 57.996904,99.0650155 C26.5727554,99.0650155 1,77.0681115 1,49.9783282 C1,22.996904 26.5727554,1 57.996904,1 Z"></path>
                <path fill="#000000" id="椭圆-5备份" d="M57.996904,0 C26.060001,0 0,22.4006571 0,49.9783282 C0,77.6471885 26.0402198,100.065015 57.996904,100.065015 C89.9334185,100.065015 115.885449,77.6643155 115.885449,49.9783282 C115.885449,22.3835578 89.9136872,0 57.996904,0 Z M57.996904,2 C88.8696891,2 113.885449,23.5596351 113.885449,49.9783282 C113.885449,76.4890167 88.888865,98.0650155 57.996904,98.0650155 C27.0838174,98.0650155 2,76.470548 2,49.9783282 C2,23.5780774 27.1030458,2 57.996904,2 Z"></path>
                <g transform="translate(19.135781, 21.046440)" id="左眼">
                    <path fill="#000000" id="形状-11" d="M1.910659,-1.5398759e-14 C12.9632906,0.325077399 19.4648386,6.82662539 19.4648386,6.82662539 C20.656789,9.10216718 18.7063246,8.01857585 18.7063246,8.01857585 C11.7713401,4.33436533 0.17691287,0.866873065 0.17691287,0.866873065 C-0.689960195,0.108359133 1.910659,-1.5398759e-14 1.910659,-1.5398759e-14 Z"></path>
                    <path fill="#000000" id="椭圆-1" d="M11.2295444,14.7368421 C14.913755,14.4117647 18.2728881,17.6625387 18.7063246,21.8885449 C19.1397612,26.2229102 16.4307828,29.9071207 12.7465723,30.123839 C8.95400265,30.4489164 5.59486953,27.1981424 5.26979213,22.8637771 C4.83635559,18.6377709 7.54533392,14.9535604 11.2295444,14.7368421 L11.2295444,14.7368421 Z"></path>
                    <path fill="#FFFFFF" id="椭圆-2" d="M13.3967271,18.4210526 C14.5886776,18.3126935 15.5639098,19.3962848 15.6722689,20.9133127 C15.780628,22.4303406 14.913755,23.7306502 13.8301636,23.7306502 C12.7465723,23.8390093 11.662981,22.755418 11.5546218,21.2383901 C11.4462627,19.7213622 12.3131358,18.4210526 13.3967271,18.4210526 Z"></path>
                    <path fill="#FFFFFF" id="椭圆-3-拷贝" d="M14.155241,25.1393189 C14.6970367,25.1393189 15.1304732,25.3560372 15.1304732,25.7894737 C15.1304732,26.1145511 14.6970367,26.4396285 14.155241,26.4396285 C13.6134454,26.4396285 13.0716497,26.1145511 13.0716497,25.7894737 C13.0716497,25.3560372 13.6134454,25.1393189 14.155241,25.1393189 Z"></path>
                </g>
                <g transform="translate(72.998095, 21.046440)" id="右眼">
                    <path fill="#000000" id="形状-11" d="M19.7820904,0.866873065 C19.7820904,0.866873065 8.18766319,4.33436533 1.14431954,8.01857585 C1.14431954,8.01857585 -0.806144859,9.10216718 0.385805605,6.82662539 C0.385805605,6.82662539 6.88735359,0.325077399 18.0483443,-1.5398759e-14 C18.0483443,-1.5398759e-14 20.5406044,0.108359133 19.7820904,0.866873065 L19.7820904,0.866873065 Z"></path>
                    <path fill="#000000" id="椭圆-1" d="M14.6892112,22.8637771 C14.2557746,27.1981424 10.8966415,30.4489164 7.21243099,30.123839 C3.41986133,29.9071207 0.819242138,26.2229102 1.14431954,21.8885449 C1.57775607,17.6625387 4.9368892,14.4117647 8.62109972,14.7368421 C12.4136694,14.9535604 15.1226477,18.6377709 14.6892112,22.8637771 L14.6892112,22.8637771 Z"></path>
                    <path fill="#FFFFFF" id="椭圆-2" d="M10.3548459,21.2383901 C10.2464867,22.755418 9.27125452,23.8390093 8.07930406,23.7306502 C6.99571273,23.7306502 6.12883966,22.4303406 6.23719879,20.9133127 C6.34555793,19.3962848 7.32079013,18.3126935 8.51274059,18.4210526 C9.59633192,18.4210526 10.463205,19.7213622 10.3548459,21.2383901 Z"></path>
                    <path fill="#FFFFFF" id="椭圆-3-拷贝" d="M5.80376226,25.1393189 C6.34555793,25.1393189 6.77899446,25.3560372 6.77899446,25.7894737 C6.77899446,26.1145511 6.34555793,26.4396285 5.80376226,26.4396285 C5.2619666,26.4396285 4.72017093,26.1145511 4.72017093,25.7894737 C4.72017093,25.3560372 5.2619666,25.1393189 5.80376226,25.1393189 Z"></path>
                </g>
            </g>
            <g transform="translate(71.527912, 98.435882)" id="口罩">
                <polygon points="147.95506 1.08359133 158.790973 2.16718266 163.125338 13.003096 153.373016 22.755418 134.951964 30.3405573 136.035555 27.0897833 152.289425 21.6718266 160.958156 13.003096 157.707382 4.33436533 144.704286 3.25077399" fill="#64BEF8" id="形状-512"></polygon>
                <polygon points="19.0076913 2.16718266 6.00459536 3.25077399 2.75382137 11.9195046 11.422552 20.5882353 27.676422 26.006192 28.7600133 29.2569659 10.3389607 21.6718266 0.586638703 11.9195046 4.92100403 1.08359133 15.7569173 0" fill="#64BEF8" id="形状-512-拷贝"></polygon>
                <path fill="#64BEF8" id="形状-510" d="M14.673326,0 L39.8126449,9.75232198 C39.8126449,9.75232198 58.1253384,14.1950464 64.9519638,9.75232198 C64.9519638,9.75232198 86.8405087,3.46749226 96.7011898,9.75232198 C96.7011898,9.75232198 115.772397,16.7956656 126.499951,9.75232198 L146.97997,2.16718266 C146.97997,2.16718266 147.521623,58.4055728 81.7476294,62.8482972 C81.7476294,62.8482972 28.8683724,63.9318885 23.0169793,16.25387 C23.0169793,16.25387 21.3915923,7.58513932 14.673326,3.25077399 L14.673326,0 Z"></path>
                <path fill="#000000" id="形状结合" d="M16.4984848,0.0365540051 L18.0443305,0.748569604 L19.4632008,1.38847151 C19.69839,1.49343185 19.9329347,1.59754723 20.1668347,1.70081772 L20.1668347,1.70081772 L21.5624986,2.31030224 C22.2564624,2.60997552 22.9446237,2.90204565 23.6269814,3.18651406 L23.6269814,3.18651406 L24.9839583,3.74531568 L26.3254568,4.28384859 C26.54775,4.37191516 26.7693981,4.45913731 26.9904011,4.54551508 L26.9904011,4.54551508 L28.3086786,5.05364972 C28.745524,5.21965073 29.1797888,5.38227469 29.6114728,5.54152201 L29.6114728,5.54152201 L30.8987819,6.00913452 C32.3916087,6.54286523 33.8528159,7.0352374 35.2823895,7.48626923 L35.2823895,7.48626923 L36.5,7.86274421 C36.7016332,7.92380282 36.9026298,7.98401786 37.1029807,8.04338937 L37.1029807,8.04338937 L38.2973374,8.38949663 C48.5812695,11.301374 57.1189862,11.9326572 63.9047222,10.2908073 L63.9047222,10.2908073 L73.0038566,8.06582588 L73.8556905,7.87147314 C74.2270923,7.78845 74.5878942,7.70984719 74.9393724,7.63550539 L74.9393724,7.63550539 L75.9671119,7.42510367 C77.8046997,7.06221855 79.3988486,6.82340948 80.9618812,6.68217 C85.0466729,6.31305816 89.1023693,6.62825615 94.2860661,7.86471634 L94.2860661,7.86471634 L95.212781,8.0925267 C95.525746,8.1716834 95.8428498,8.25407609 96.1643276,8.33975299 L96.1643276,8.33975299 L97.1421192,8.60668459 C97.4725809,8.69897816 97.8076522,8.79460418 98.1475688,8.89361087 L98.1475688,8.89361087 L99.1820895,9.20082122 L100.247094,9.528605 L101.343997,9.87725161 L102.474209,10.2470504 C102.665432,10.3104623 102.858102,10.3747676 103.052248,10.4399723 L103.052248,10.4399723 L104.235076,10.842042 L105.454747,11.2659873 L106.026088,11.4681176 L107.052095,11.5917294 L108.586292,11.7661914 L109.541764,11.8664073 L110.447467,11.9537937 L111.306911,12.0283887 L112.123605,12.0902302 C112.256353,12.0994764 112.387466,12.1081929 112.517017,12.1163803 L112.517017,12.1163803 L113.276164,12.1591628 L114.001332,12.1892867 L114.696031,12.2067901 C115.036347,12.212393 115.366553,12.2132775 115.688623,12.2094648 L115.688623,12.2094648 L116.322498,12.195583 L116.938183,12.1692135 C117.343357,12.1474798 117.738744,12.1174462 118.129022,12.0791636 L118.129022,12.0791636 L118.711192,12.0155591 C118.904362,11.9922995 119.096839,11.966984 119.289209,11.9396188 L119.289209,11.9396188 L119.56951,11.898294 C120.188056,11.8039231 120.808966,11.6873505 121.44918,11.5438593 L121.44918,11.5438593 L122.096455,11.3912206 C122.423937,11.3102401 122.757656,11.2221368 123.09973,11.1263213 L123.09973,11.1263213 L123.795644,10.9242324 C123.913695,10.8887788 124.032832,10.8524246 124.153132,10.815148 L124.153132,10.815148 L124.889522,10.5802444 C125.265326,10.4570832 125.653013,10.325227 126.054701,10.1840862 L126.054701,10.1840862 L126.877372,9.88925046 C127.017804,9.83798968 127.159949,9.7856536 127.303884,9.73222038 L127.303884,9.73222038 L128.189616,9.39828071 C128.341028,9.34037159 128.494389,9.28132166 128.649776,9.22110908 L128.649776,9.22110908 L129.607037,8.84570709 L130.11494,8.64158892 L132.556666,7.63729806 L146.704088,1.73911765 L146.879186,1.58005552 L147.236055,1.26459472 L148.050139,0.564390315 L159.142861,1.70061016 L163.712024,13.1235176 L153.72657,23.1089713 L153.570821,23.2146275 L140.372088,28.8991176 L140.063024,29.448903 C127.141133,52.1332186 107.975575,63.4494056 82.6082226,63.3560768 L82.6082226,63.3560768 L81.8297337,63.3496558 L79.7567749,63.2341305 L77.7760145,63.1097169 L75.8829851,62.9751492 L74.0732187,62.8291619 L72.9107589,62.7248679 L71.7819955,62.614561 L70.6856048,62.4978664 L69.620263,62.3744089 L68.5846464,62.2438136 C68.4144472,62.221432 68.2454314,62.1987375 68.0775714,62.1757221 L68.0775714,62.1757221 L67.0840604,62.033717 L66.1169653,61.8836366 C65.9579105,61.8579295 65.7999013,61.8318702 65.6429099,61.805451 L65.6429099,61.805451 L64.7129564,61.6425547 C64.5599264,61.6146647 64.4078592,61.5863991 64.2567272,61.5577502 L64.2567272,61.5577502 L63.3609368,61.3811941 C63.2134352,61.3509806 63.0668137,61.3203681 62.9210446,61.2893488 L62.9210446,61.2893488 L62.0564389,61.0982893 C61.3440909,60.9349011 60.6516753,60.7609528 59.9757447,60.5754678 L59.9757447,60.5754678 L59.1723203,60.3472858 L58.3833978,60.1076536 C58.1226936,60.0258262 57.8641857,59.942028 57.6076535,59.8561963 L57.6076535,59.8561963 L56.8437636,59.5925389 C55.8325582,59.2326956 54.8494346,58.8393187 53.8802726,58.4084083 L53.8802726,58.4084083 L53.1557982,58.0781254 L52.4352357,57.7333926 C52.3153944,57.6747121 52.195661,57.6154139 52.0760077,57.5554902 L52.0760077,57.5554902 L51.3588309,57.1883791 L51.0005512,56.9990767 C43.6990521,53.1014856 37.140825,46.7386889 30.3010537,36.6385789 L30.3010537,36.6385789 L29.5105416,35.4565236 C28.8506431,34.4575353 28.1877771,33.4235412 27.5210326,32.3534103 L27.5210326,32.3534103 L26.7190192,31.0518351 L25.9129326,29.7151342 L25.1910876,28.4931176 L23.3499885,27.758256 L21.8019496,27.1217658 L18.4485377,25.7122254 L15.3361782,24.3812988 L10.1392404,22.1302062 L9.98609797,22.0260693 L0,12.0788737 L4.57577436,0.599330175 L16.4984848,0.0365540051 Z M16.3000876,1.04711765 L5.26608762,1.56711765 L1.17308762,11.8361176 L10.6240876,21.2511176 L15.2468938,23.2541508 L17.9904033,24.4304222 L21.4975674,25.9119465 L23.7206524,26.8294747 L24.7926325,27.2615172 L25.8775356,27.6873568 L26.3675522,28.521996 C34.9276864,43.0158829 42.668813,51.4179805 51.4714647,56.1168973 L51.4714647,56.1168973 L52.1840164,56.4893076 C54.2045321,57.5226314 56.24431,58.3718628 58.4435886,59.0761932 L58.4435886,59.0761932 L59.2266557,59.3188275 C59.490038,59.3977426 59.7558562,59.474716 60.0243388,59.5498115 L60.0243388,59.5498115 L60.8380078,59.7695279 C61.386087,59.9123348 61.9457368,60.0478852 62.5187843,60.1766899 L62.5187843,60.1766899 L63.3886321,60.3649012 C63.682083,60.4259944 63.9791116,60.4854649 64.2799463,60.5433766 L64.2799463,60.5433766 L65.1940972,60.712499 C65.8114479,60.8222147 66.4449363,60.9259504 67.0963895,61.0242165 L67.0963895,61.0242165 L68.087271,61.1675773 C68.4222083,61.2140394 68.7618651,61.2591979 69.1064698,61.3031167 L69.1064698,61.3031167 L70.1553558,61.4312176 L71.2352992,61.5522629 C71.417954,61.5718704 71.6019599,61.5911999 71.7873456,61.6102593 L71.7873456,61.6102593 L72.9164441,61.7214391 L74.0800254,61.8265206 C74.2769053,61.8435473 74.475279,61.8603358 74.6751752,61.8768941 L74.6751752,61.8768941 L75.8930496,61.973546 L77.148832,62.0650568 L78.4438926,62.1518093 L79.7796015,62.2341866 L81.8623777,62.3503864 C107.486258,62.6778404 126.705183,51.3299706 139.583509,28.2634528 L139.583509,28.2634528 L139.666297,28.1151697 L153.085088,22.3351176 L162.538088,12.8821176 L158.438088,2.63311765 L148.374088,1.60211765 L147.773804,2.12292674 L147.466978,2.39681828 L147.325963,2.52813798 L147.170299,2.62954057 L134.47123,7.92516126 L130.302998,9.64421631 L129.004108,10.1562567 L128.081135,10.5091311 C127.931139,10.5656612 127.783007,10.6210647 127.636659,10.6753634 L127.636659,10.6753634 L126.779343,10.988072 L125.961022,11.2753104 L125.177874,11.5381246 C123.516396,12.081851 122.075686,12.4609536 120.680828,12.7232975 L120.680828,12.7232975 L120.039667,12.836263 L119.720333,12.8868547 L119.141531,12.9692304 L118.561127,13.0396407 L118.561127,13.0396407 L118.269305,13.0703518 L117.680386,13.1227716 C117.482635,13.1382425 117.283259,13.1517097 117.081714,13.1631694 L117.081714,13.1631694 L116.470029,13.1915225 C116.366816,13.195243 116.262925,13.1984608 116.158288,13.2011752 L116.158288,13.2011752 L115.52097,13.2114188 L114.86249,13.209561 L114.179585,13.1955792 L113.468995,13.1694508 L112.727462,13.131153 L111.951723,13.0806633 L111.138518,13.0179589 L110.284588,12.9430172 L109.386672,12.8558155 L108.44151,12.7563312 L107.44584,12.6445416 L105.850504,12.4537352 L105.744592,12.4287387 L104.519274,11.9983799 L103.331575,11.589889 L102.180089,11.2029708 L101.06341,10.8373304 L99.9801346,10.4926727 L98.9288564,10.1687025 C98.7562318,10.116415 98.5848818,10.0649773 98.4147772,10.0143831 L98.4147772,10.0143831 L97.4088603,9.72089103 C97.2436203,9.67364638 97.079567,9.62723298 96.9166713,9.58164468 L96.9166713,9.58164468 L95.952954,9.31796692 L95.015613,9.07379649 C94.707406,8.99562479 94.4033608,8.92065513 94.1032433,8.84883834 L94.1032433,8.84883834 L93.2144396,8.64279741 C93.0681914,8.61001729 92.9228666,8.5780131 92.7784358,8.54677869 L92.7784358,8.54677869 L91.9223463,8.36856033 L91.0863095,8.20852154 C87.3671555,7.52880835 84.2144234,7.39233667 81.051877,7.67811215 C79.8019765,7.79105624 78.528074,7.96847871 77.1154389,8.22503026 L77.1154389,8.22503026 L76.1518702,8.40794824 C75.3296704,8.57041687 74.4567828,8.75831291 73.513535,8.97414848 L73.513535,8.97414848 L72.8790919,9.12279443 L65.2911483,10.9792827 L63.7370232,11.3572076 C56.4508819,13.0110338 47.3019809,12.1699349 36.2838633,8.84226619 L36.2838633,8.84226619 L35.0519355,8.46229285 C33.6057113,8.00705335 32.128073,7.51003513 30.6190067,6.97125639 L30.6190067,6.97125639 L29.3178242,6.4992194 C28.0089444,6.01695619 26.6769717,5.5040156 25.3218971,4.9604091 L25.3218971,4.9604091 L23.9591215,4.40658105 L22.5809428,3.8323116 C22.3499626,3.73489671 22.1183405,3.63663021 21.8860766,3.53751215 L21.8860766,3.53751215 L20.4847893,2.93258537 C20.0151257,2.72753714 19.542894,2.51908306 19.068094,2.30722357 L19.068094,2.30722357 L17.6359886,1.66142929 L16.3000876,1.04711765 Z M148.867963,2.44008145 L158.007201,3.94160589 L161.54151,13.1268482 L152.558036,22.1103224 L151.460193,22.4691129 L150.519943,22.781711 L149.190894,23.2334863 L147.959536,23.6646576 L147.192959,23.9406263 L146.469884,24.2073893 L145.790346,24.4649273 L144.85274,24.8338951 C144.754012,24.8737335 144.657102,24.9131856 144.562009,24.9522509 L144.562009,24.9522509 L144.013279,25.1819979 L143.50822,25.4024425 L143.046863,25.6135655 C142.973614,25.6479748 142.902188,25.6819949 142.832585,25.7156253 L142.832585,25.7156253 L142.436847,25.9127296 L140.954513,26.7016759 L141.564942,25.3595953 L141.765103,24.9032154 C141.798504,24.8243443 141.831925,24.7440696 141.865366,24.6623913 L141.865366,24.6623913 L142.066254,24.155482 L142.26762,23.6149008 L142.469458,23.040659 L142.671762,22.4327683 L142.874525,21.79124 C142.908357,21.6815161 142.942208,21.5703912 142.976078,21.4578654 L142.976078,21.4578654 L143.179521,20.7659023 L143.383409,20.0403305 L143.587736,19.2811612 L143.792498,18.4884061 L144.10044,17.236325 L144.30626,16.3596554 L144.512493,15.44944 L144.719134,14.5056905 L144.926176,13.5284181 L145.237478,11.9996796 L145.445498,10.9386505 L145.75824,9.28433073 L145.967202,8.13961673 L146.176529,6.96144884 L146.491194,5.13149603 L146.740475,3.63236896 L148.867963,2.44008145 Z M14.959609,2.00133534 L15.4641155,2.54451402 L16.1195361,3.26092924 C16.2262623,3.3787092 16.3317334,3.49567875 16.4359495,3.61183916 L16.4359495,3.61183916 L17.0461877,4.29910237 L17.6263143,4.96700831 C17.8146722,5.18642429 17.9980128,5.40262439 18.1763376,5.61561891 L18.1763376,5.61561891 L18.6962654,6.24499611 L19.1861058,6.85520183 C19.265239,6.9553086 19.343119,7.05461914 19.4197458,7.15313474 L19.4197458,7.15313474 L19.8644702,7.73469936 L20.2791274,8.29724733 C21.8110279,10.4173117 22.6803729,12.1195824 22.8892005,13.419757 L22.8892005,13.419757 L23.0392374,14.3757947 L23.3032715,16.1346508 L23.8473209,19.9325075 L24.7095688,26.1967468 L11.2441988,21.0553436 L11.0689986,20.9417887 L2.17261026,12.0454003 L5.64756884,2.7788441 L14.959609,2.00133534 Z M14.5570876,3.03711765 L6.36108762,3.72211765 L3.33408762,11.7921176 L11.7020876,20.1601176 L23.4910876,24.6601176 L22.8575166,20.0749927 L22.2674174,15.9650487 L21.9018548,13.5783396 C21.764832,12.7252269 21.2725509,11.6268988 20.4258345,10.289694 L20.4258345,10.289694 L20.1122777,9.80783089 C19.9481421,9.5619503 19.7729718,9.30865386 19.5867712,9.04797641 L19.5867712,9.04797641 L19.1996644,8.51679049 L18.7831517,7.96598381 L18.337241,7.39561829 C18.2604732,7.29893091 18.1824808,7.20143116 18.103264,7.10312033 L18.103264,7.10312033 L17.6132716,6.50353268 C17.5291579,6.40198268 17.44382,6.29962419 17.3572583,6.19645848 L17.3572583,6.19645848 L16.8232022,5.56778804 C16.7317455,5.46139865 16.6390652,5.35420463 16.5451615,5.24620728 L16.5451615,5.24620728 L15.9670599,4.58859338 L15.3596046,3.91176127 L14.5570876,3.03711765 Z M149.050088,3.48311765 L147.649088,4.26811765 L147.471102,5.33439597 L147.249249,6.63115678 L146.917124,8.50705367 L146.696134,9.71150802 L146.365272,11.4490073 L146.145103,12.5612379 L145.92525,13.6366022 L145.705707,14.6751134 L145.486467,15.6767848 L145.158159,17.1102461 L144.939647,18.0198758 L144.721414,18.892712 L144.503453,19.728768 L144.285758,20.5280569 L144.068321,21.290592 L143.851137,22.0163866 L143.634199,22.7054538 C143.598062,22.8172385 143.561936,22.9274934 143.525819,23.0362189 L143.525819,23.0362189 L143.309236,23.67022 L143.092882,24.2675269 L142.989088,24.5391176 L143.075049,24.5008834 L143.591542,24.2749182 L144.151288,24.0400318 L145.072081,23.6709326 L146.090383,23.2816519 L146.823478,23.0108872 L147.599995,22.7311047 L148.419967,22.442285 L149.731475,21.9920683 L150.660231,21.680571 L152.020088,21.2331176 L160.374088,12.8791176 L157.279088,4.83511765 L149.050088,3.48311765 Z"></path>
            </g>
            <g transform="translate(94.628518, 65.313009)" id="护目镜">
                <path fill="#F9E2DC" fill-opacity="0.1" d="M6.8513582,6.4665267 C6.8513582,6.4665267 64.1733396,-6.42821014 115.42721,7.4417589 C115.42721,7.4417589 123.229067,11.1259694 120.628448,17.1940809 C120.628448,17.1940809 117.91947,37.673957 107.300275,44.2838642 C107.300275,44.2838642 86.6036802,62.3798394 70.3498102,38.3241118 C70.3498102,38.3241118 65.0402127,29.9804586 58.1052282,36.5903657 C58.1052282,36.5903657 40.6594077,63.5717899 14.6532158,42.2250406 C14.6532158,42.2250406 2.62535201,28.2467125 0.99996501,15.4603348 C0.99996501,15.4603348 0.99996501,7.65847717 6.8513582,6.4665267 L6.8513582,6.4665267 Z"></path>
                <path fill="#000000" id="护目镜备份" d="M41.8474189,0.755475563 C33.2234068,1.3750976 25.0975571,2.32939586 17.6798126,3.48641561 L15.7175794,3.79987488 L14.2967063,4.03650178 L12.9356906,4.27133359 L11.6356467,4.50367147 L10.3976887,4.73281656 C10.1965981,4.77070252 9.99814085,4.80842633 9.80234013,4.84597342 L8.51954116,5.09698965 L7.58217169,5.28787278 L6.63188989,5.49090707 C3.78072419,6.0714895 1.90882648,8.04475825 0.867924024,10.8562964 C0.507457212,11.8299382 0.269964793,12.8463338 0.130495192,13.8572763 C0.0794880755,14.2270004 0.0458211043,14.5612346 0.025432461,14.8507875 L0.00430051498,15.250457 L1.42108547e-14,15.4519694 L0.00794796588,15.5864386 C0.137964614,16.6092362 0.333991761,17.6558039 0.593005372,18.7245235 C1.69739897,23.2813772 3.90173832,28.114594 6.88120201,33.0247377 C8.41310341,35.5493048 10.0531627,37.9333974 11.6936297,40.1055507 L12.2542881,40.839377 L12.7848976,41.5176294 L13.282464,42.1382996 L13.6973888,42.6431436 L13.8952049,42.8772825 L14.0187511,42.9979925 C25.3064439,52.263307 35.99106,53.5058956 45.6418163,48.786919 C49.0943448,47.0987195 52.1909955,44.7430378 54.9092302,41.9851713 L55.254847,41.6303929 C56.7348927,40.0931561 57.8837993,38.6650903 58.683745,37.5176625 L58.872482,37.2409911 L58.7951657,37.3142346 C61.3724433,34.8577669 63.7278416,34.5207638 65.9952467,35.6650902 C66.8453307,36.0941153 67.6407146,36.7162828 68.359258,37.4596091 C68.772565,37.8871714 69.1078091,38.2975869 69.3549934,38.6420184 L69.5061487,38.8609873 C76.4128704,49.08361 84.6741925,52.8399716 93.5185122,51.5867863 C96.7419182,51.1300496 99.8548844,50.0243647 102.784043,48.4667874 C104.764307,47.4137834 106.405493,46.2974491 107.632555,45.3075063 L107.899482,45.0869911 L107.828715,45.1328344 C111.892843,42.603122 115.089757,38.077949 117.56052,32.1381825 C118.909506,28.8951937 119.957806,25.4296464 120.743656,21.9653115 L120.966599,20.9482337 C121.036717,20.6166623 121.102673,20.2927647 121.16457,19.9771989 L121.33819,19.0561549 L121.500519,18.1123722 L121.600482,17.4569911 L121.547593,17.5880002 C122.811841,14.6380872 122.070732,11.9221072 119.965687,9.60701857 C119.234256,8.80260491 118.378977,8.09332787 117.460944,7.47690105 C116.948017,7.13248868 116.482309,6.86036763 116.101866,6.66200308 L115.865154,6.54275696 L115.688427,6.47647891 C93.1420718,0.37513965 67.8718859,-1.11434244 41.8474189,0.755475563 Z M71.473081,38.1950869 L71.130029,37.6912545 C70.8124139,37.2224684 70.3664271,36.6583891 69.7972399,36.0695704 C68.9339219,35.176476 67.966292,34.4195738 66.8963604,33.8795948 C63.8771869,32.3558617 60.607801,32.8236353 57.4152906,35.8664968 C57.3592657,35.9198955 57.3096295,35.9796178 57.2621538,36.0524835 L57.0828416,36.3163565 L56.8339037,36.6660836 C56.7887206,36.728233 56.741701,36.7922634 56.6928605,36.8581002 L56.3780907,37.2741992 C56.2659665,37.419726 56.1466828,37.5718807 56.0203636,37.730066 C55.2782,38.6594524 54.4315388,39.6207065 53.4848189,40.5812295 C50.9147673,43.1887524 47.9946255,45.4101605 44.7632714,46.9902112 L44.41868,47.1557649 C35.6778259,51.2806099 26.0856389,50.1390453 15.6981268,41.785581 L15.356482,41.5079911 L14.8350918,40.8776066 L14.3519357,40.2748932 C14.2685757,40.1696257 14.1838404,40.0619789 14.0977925,39.9519958 L13.566257,39.2644023 C13.47521,39.1452446 13.3829758,39.023836 13.2896172,38.9002193 C11.6876958,36.7791043 10.0853667,34.4498588 8.59103883,31.9872128 C5.70935175,27.2382045 3.58585974,22.5822529 2.5367347,18.2534436 L2.3987174,17.6573615 C2.26788947,17.0642733 2.15868768,16.4802164 2.07163387,15.905636 L2.00048204,15.3979911 L2.01042172,15.1513182 C2.01338587,15.0964742 2.01701298,15.0387128 2.02136003,14.9782001 L2.05653764,14.5834362 C2.07144726,14.4417281 2.08969263,14.2903426 2.11172969,14.1306074 C2.23259618,13.2545091 2.43771907,12.3766453 2.74351017,11.5506858 C3.53227042,9.42019842 4.83706719,7.99278098 6.80190927,7.50275704 L7.71371301,7.30363225 L9.25151324,6.99064392 L10.76911,6.69802561 L11.9952202,6.47108293 L13.2833161,6.24089131 L14.6322794,6.00814864 L16.0409919,5.77355279 C16.2806943,5.73433782 16.5228396,5.69507472 16.7674046,5.65577801 C24.4582403,4.42001445 32.9487948,3.3999836 41.9907464,2.75033326 L43.3028898,2.6588873 C68.2207563,0.976199 92.3951935,2.42272305 114.029689,8.10410264 L115.071482,8.3819911 L115.349947,8.52773098 L115.716409,8.73780909 C115.9115,8.85426252 116.123177,8.98767499 116.346034,9.13731522 C117.139077,9.66981589 117.873155,10.278582 118.48594,10.952511 C120.106771,12.7350694 120.629882,14.6521429 119.709303,16.8001616 C119.67335,16.8840509 119.649052,16.9724672 119.637083,17.062948 L119.561131,17.5743765 L119.48762,18.0264271 L119.445272,18.2750545 C119.27613,19.2538693 119.060163,20.3460302 118.793208,21.5228718 C118.030871,24.8835531 117.014659,28.2430221 115.71391,31.3700483 C113.388412,36.9605934 110.417768,41.1654858 106.771834,43.4348939 L106.623124,43.5473782 L106.372328,43.7545105 C105.242536,44.6659585 103.70432,45.7122533 101.845045,46.7009213 C99.108181,48.1562462 96.210939,49.1853087 93.2379272,49.6065661 C85.2802499,50.7341197 77.873376,47.4381761 71.473081,38.1950869 Z"></path>
            </g>
            <g transform="translate(78.499286, 152.112348) rotate(5.000000) translate(-78.499286, -152.112348) translate(45.999286, 98.494696)" id="左手">
                <path fill="#FFFFFF" id="形状-515" d="M23.1307447,26.7058925 C23.1307447,26.7058925 26.8149552,14.0278739 27.3567509,11.2105365 C27.3567509,11.2105365 28.9821379,3.40867888 35.0502493,2.75852408 C35.0502493,2.75852408 41.9852339,-1.90091864 43.3939026,3.95047455 C43.3939026,3.95047455 47.5115496,5.14242501 46.969754,8.82663554 C46.969754,8.82663554 50.6539645,9.91022687 50.0038097,13.5944374 C50.0038097,13.5944374 55.8336818,20.3854155 43.0473041,22.3358799 C43.3977309,21.9378589 43.3326652,21.8052625 42.8521069,21.9380906 C42.8521069,21.9380906 42.6353887,27.7894838 33.8582989,27.897843 C33.8582989,27.897843 33.4248623,34.1826727 30.2824475,36.7832919 L23.1307447,26.7058925 Z"></path>
                <path fill="#000000" id="形状-515备份" d="M39.220645,0.0519037966 C38.2497666,0.174582726 37.2422425,0.503098239 36.2309813,0.972292245 L35.9823029,1.09028778 C35.4969912,1.32573084 35.0853261,1.55609306 34.7720809,1.74910618 L34.7,1.79429763 L34.9437162,1.76421493 C32.0360752,2.07574789 29.8240225,3.80868346 28.2286549,6.44533905 C27.6259535,7.44142037 27.1528176,8.50136763 26.7919986,9.56079371 L26.6443774,10.0135339 C26.6002831,10.1553179 26.5612295,10.2876344 26.5269996,10.4094691 L26.4385642,10.7425138 L26.3777705,11.0065822 L26.2975583,11.3923655 L26.1866257,11.8769015 L25.9362062,12.8946854 L25.5333203,14.4435196 L24.9323076,16.6676888 L24.2631641,19.0828645 L23.36318,22.2723164 L22.1704694,26.4268381 L22.0356707,26.8907043 L30.0902722,38.2403701 L30.9200152,37.5536862 C32.1314015,36.5511596 33.0399246,35.0682738 33.7103425,33.2374908 C34.1338547,32.0809599 34.4377527,30.852103 34.6439994,29.6247437 L34.7394759,29.0052672 L34.758,28.8662976 L35.0606568,28.8473343 C38.513799,28.5913307 40.9193123,27.4025757 42.3973134,25.5404103 L42.5843624,25.2951223 C43.0630262,24.6412389 43.3822402,23.9911118 43.5808819,23.3930521 L43.623,23.2552976 L43.9608667,23.1987977 C48.9296937,22.3170948 51.5779751,20.5566684 52.1976715,18.0632565 L52.2535509,17.8097357 C52.5617637,16.2082756 52.0106925,14.6885786 51.1034557,13.3932752 L51.05,13.3192976 L51.0584747,13.2492086 C51.2297319,11.382017 50.4765709,9.91038531 49.1390165,8.87053778 L48.9071394,8.6982387 C48.6759914,8.53419415 48.4477982,8.3946689 48.2294642,8.27746442 L48.019,8.16929763 L48.0145514,7.93257621 C47.9541835,6.59667375 47.3683925,5.46358477 46.3978082,4.5589768 L46.1345634,4.32656096 C45.5998903,3.87935005 45.0191295,3.53694369 44.4465194,3.28277933 L44.217,3.18529763 L44.1496436,2.98536611 C43.3280211,0.686402503 41.5225105,-0.238956925 39.220645,0.0519037966 Z M42.421679,4.18452838 L42.5576823,4.74946555 L43.1422837,4.91945956 L43.2262821,4.94799966 C43.8195626,5.15653384 44.4909366,5.51571171 45.0341957,6.0220424 C45.792342,6.72865304 46.1423844,7.57961269 45.9803948,8.68114155 L45.8539716,9.54081983 L46.7286543,9.79921058 L46.8578111,9.84774885 L47.0415348,9.92672534 C47.3391279,10.0621957 47.6373129,10.236366 47.9114829,10.4495125 C48.8205615,11.1562525 49.2536665,12.0910235 49.0190261,13.4206521 L48.9367795,13.8867164 L49.2571564,14.2604606 L49.355866,14.388671 C50.0709596,15.3524205 50.517639,16.5310251 50.2567187,17.5808646 L50.2203209,17.7117629 C49.7797735,19.1421612 47.9859752,20.3476477 44.3336876,21.092973 L43.924,21.1722976 L43.9163913,21.1650028 C43.6985139,20.9635626 43.4201993,20.8881152 43.134196,20.8882367 C42.9597582,20.8883108 42.7849305,20.9191619 42.5856926,20.974232 L41.8798944,21.1693174 L41.849034,21.9560893 L41.8278081,22.1131104 L41.805,22.2322976 L40.479489,23.7391481 L41.286,23.6152976 L41.1658928,23.8222516 C41.0656929,23.9829556 40.9542056,24.1415321 40.8307733,24.2970471 C39.5813423,25.8712321 37.3671441,26.8544477 33.8459541,26.8979192 L32.9240989,26.9093001 L32.857106,27.8758026 L32.8232403,28.2164273 C32.7871677,28.5401625 32.7373312,28.9024616 32.6716528,29.2933086 C32.4843854,30.407724 32.2091593,31.520642 31.8323018,32.5497675 L31.7098447,32.8718363 C31.3762692,33.7168679 30.9865639,34.4504251 30.5420965,35.0502797 L30.404,35.2272976 L24.225,26.5192976 L24.9632549,23.9543178 L25.9707831,20.4009767 L26.9605242,16.8333509 L27.3970164,15.2178571 L27.6940994,14.0907815 L27.997015,12.8990354 L28.1821457,12.1270792 L28.3142517,11.5233033 L28.3559475,11.3248352 L28.4125945,11.1016833 C28.4838152,10.8329366 28.5742421,10.5314015 28.6852093,10.2055829 C29.0024921,9.2739867 29.4181024,8.3429117 29.9397995,7.48070558 C31.2402043,5.3315336 32.954133,3.98883139 35.1567825,3.75283323 L35.402671,3.72648803 L35.7188053,3.51707897 L35.8919434,3.41124746 L36.0004455,3.3471186 C36.3270258,3.15621258 36.6886124,2.96474885 37.0727314,2.78652947 C37.9121632,2.39705901 38.7329494,2.12943166 39.4713687,2.03612597 C41.0444604,1.83735215 41.9927411,2.40278658 42.421679,4.18452838 Z"></path>
                <path fill="url(#linearGradient-3)" id="椭圆形" d="M32.5003041,106.284809 C49.9135919,106.284809 64.0298507,88.3616224 64.0298507,66.252251 C64.0298507,49.7755639 50.1116083,34.1926386 38.9098748,28.0513131 C35.0804747,25.951853 28.342224,12.1857993 23.9059355,12.1857993 C6.4926477,12.1857993 0.970149254,44.1428797 0.970149254,66.252251 C0.970149254,88.3616224 15.0870163,106.284809 32.5003041,106.284809 Z"></path>
                <path fill="#000000" id="椭圆形备份" d="M23.9066492,11.2353043 C16.4166765,11.2353043 10.6684581,16.6555006 6.61798893,26.2641234 L6.27496259,27.0979483 C6.21848415,27.2386191 6.16235193,27.3801375 6.10656581,27.5224999 L5.77600118,28.3867737 C5.5039899,29.1153941 5.24062456,29.8649351 4.98588914,30.6349478 C1.69586986,40.5799983 0.000713733326,53.6831739 0.000713733326,66.252251 C0.000713733326,88.8404756 14.4888227,107.235304 32.5010179,107.235304 C50.513104,107.235304 65.0007137,88.8406192 65.0007137,66.252251 C65.0007137,57.2157597 60.6929737,47.6662894 54.2982888,39.8560471 L53.651946,39.0809037 C49.624282,34.3376324 44.8311498,30.2842995 39.7933361,27.4490582 L39.3048968,27.1769263 L39.1441849,27.0776239 L38.9801814,26.9647997 L38.8118613,26.8373444 C38.7833913,26.814821 38.7546988,26.7916417 38.7257623,26.7677834 L38.5490456,26.6163012 L38.36545,26.4474141 L38.1739504,26.2600129 L37.9735219,26.0529879 L37.6538953,25.7032292 L37.3084132,25.3030766 L37.0620194,25.0064625 L36.6657575,24.5139992 L36.2344153,23.961157 L35.5987441,23.1236395 L34.6953144,21.9029129 L32.6693419,19.1127311 L31.7284926,17.84148 L31.2833687,17.2526974 L30.64503,16.4267931 L30.0394772,15.668243 L29.6526395,15.199201 L29.2783479,14.758953 C29.2169664,14.6879524 29.156074,14.6181326 29.0956536,14.549484 L28.7386619,14.1515709 C28.5628637,13.9595656 28.3910107,13.77793 28.2226471,13.6064074 L27.8904376,13.27677 C26.4152163,11.853395 25.1980316,11.2353043 23.9066492,11.2353043 Z M23.9234386,13.2353043 C24.6607181,13.2353043 25.5512428,13.7715901 26.7098599,14.9250789 L27.0182648,15.240043 L27.3392859,15.5833281 C27.3938659,15.64292 27.4489904,15.7037053 27.504669,15.7656907 L27.8454636,16.1520555 L28.2000071,16.5675394 L28.5687524,17.0124614 L28.9521526,17.4871407 L29.5557221,18.2556532 L29.977742,18.8061227 L30.6413647,19.6898167 L31.104836,20.3180715 L33.1685431,23.1595606 L33.7545591,23.9550857 L34.4621359,24.898309 L34.943259,25.5235908 L35.3868515,26.0835893 L35.6639292,26.4229281 L35.9276259,26.7366647 L36.1792615,27.026164 L36.4201557,27.2927911 L36.7642438,27.6528322 L36.9840584,27.8682505 L37.1977506,28.0655742 L37.4066403,28.2461681 L37.6120472,28.4113973 L37.815291,28.5626268 L38.0176915,28.7012216 L38.2205684,28.8285467 L38.4252414,28.9459671 C51.4838411,36.1039226 63.0007137,51.9678995 63.0007137,66.2371803 C63.0007137,87.8210979 49.2826579,105.235304 32.5010173,105.235304 C15.7192539,105.235304 2.00071373,87.8209473 2.00071373,66.2371803 C2.00071373,37.0892918 9.89361982,13.2353043 23.9234386,13.2353043 Z"></path>
            </g>
            <g transform="translate(228.499286, 152.112348) scale(-1, 1) rotate(5.000000) translate(-228.499286, -152.112348) translate(195.999286, 98.494696)" id="右手">
                <path fill="#FFFFFF" id="形状-515" d="M23.1307447,26.7058925 C23.1307447,26.7058925 26.8149552,14.0278739 27.3567509,11.2105365 C27.3567509,11.2105365 28.9821379,3.40867888 35.0502493,2.75852408 C35.0502493,2.75852408 41.9852339,-1.90091864 43.3939026,3.95047455 C43.3939026,3.95047455 47.5115496,5.14242501 46.969754,8.82663554 C46.969754,8.82663554 50.6539645,9.91022687 50.0038097,13.5944374 C50.0038097,13.5944374 55.8336818,20.3854155 43.0473041,22.3358799 C43.3977309,21.9378589 43.3326652,21.8052625 42.8521069,21.9380906 C42.8521069,21.9380906 42.6353887,27.7894838 33.8582989,27.897843 C33.8582989,27.897843 33.4248623,34.1826727 30.2824475,36.7832919 L23.1307447,26.7058925 Z"></path>
                <path fill="#000000" id="形状-515备份" d="M39.220645,0.0519037966 C38.2497666,0.174582726 37.2422425,0.503098239 36.2309813,0.972292245 L35.9823029,1.09028778 C35.4969912,1.32573084 35.0853261,1.55609306 34.7720809,1.74910618 L34.7,1.79429763 L34.9437162,1.76421493 C32.0360752,2.07574789 29.8240225,3.80868346 28.2286549,6.44533905 C27.6259535,7.44142037 27.1528176,8.50136763 26.7919986,9.56079371 L26.6443774,10.0135339 C26.6002831,10.1553179 26.5612295,10.2876344 26.5269996,10.4094691 L26.4385642,10.7425138 L26.3777705,11.0065822 L26.2975583,11.3923655 L26.1866257,11.8769015 L25.9362062,12.8946854 L25.5333203,14.4435196 L24.9323076,16.6676888 L24.2631641,19.0828645 L23.36318,22.2723164 L22.1704694,26.4268381 L22.0356707,26.8907043 L30.0902722,38.2403701 L30.9200152,37.5536862 C32.1314015,36.5511596 33.0399246,35.0682738 33.7103425,33.2374908 C34.1338547,32.0809599 34.4377527,30.852103 34.6439994,29.6247437 L34.7394759,29.0052672 L34.758,28.8662976 L35.0606568,28.8473343 C38.513799,28.5913307 40.9193123,27.4025757 42.3973134,25.5404103 L42.5843624,25.2951223 C43.0630262,24.6412389 43.3822402,23.9911118 43.5808819,23.3930521 L43.623,23.2552976 L43.9608667,23.1987977 C48.9296937,22.3170948 51.5779751,20.5566684 52.1976715,18.0632565 L52.2535509,17.8097357 C52.5617637,16.2082756 52.0106925,14.6885786 51.1034557,13.3932752 L51.05,13.3192976 L51.0584747,13.2492086 C51.2297319,11.382017 50.4765709,9.91038531 49.1390165,8.87053778 L48.9071394,8.6982387 C48.6759914,8.53419415 48.4477982,8.3946689 48.2294642,8.27746442 L48.019,8.16929763 L48.0145514,7.93257621 C47.9541835,6.59667375 47.3683925,5.46358477 46.3978082,4.5589768 L46.1345634,4.32656096 C45.5998903,3.87935005 45.0191295,3.53694369 44.4465194,3.28277933 L44.217,3.18529763 L44.1496436,2.98536611 C43.3280211,0.686402503 41.5225105,-0.238956925 39.220645,0.0519037966 Z M42.421679,4.18452838 L42.5576823,4.74946555 L43.1422837,4.91945956 L43.2262821,4.94799966 C43.8195626,5.15653384 44.4909366,5.51571171 45.0341957,6.0220424 C45.792342,6.72865304 46.1423844,7.57961269 45.9803948,8.68114155 L45.8539716,9.54081983 L46.7286543,9.79921058 L46.8578111,9.84774885 L47.0415348,9.92672534 C47.3391279,10.0621957 47.6373129,10.236366 47.9114829,10.4495125 C48.8205615,11.1562525 49.2536665,12.0910235 49.0190261,13.4206521 L48.9367795,13.8867164 L49.2571564,14.2604606 L49.355866,14.388671 C50.0709596,15.3524205 50.517639,16.5310251 50.2567187,17.5808646 L50.2203209,17.7117629 C49.7797735,19.1421612 47.9859752,20.3476477 44.3336876,21.092973 L43.924,21.1722976 L43.9163913,21.1650028 C43.6985139,20.9635626 43.4201993,20.8881152 43.134196,20.8882367 C42.9597582,20.8883108 42.7849305,20.9191619 42.5856926,20.974232 L41.8798944,21.1693174 L41.849034,21.9560893 L41.8278081,22.1131104 L41.805,22.2322976 L40.479489,23.7391481 L41.286,23.6152976 L41.1658928,23.8222516 C41.0656929,23.9829556 40.9542056,24.1415321 40.8307733,24.2970471 C39.5813423,25.8712321 37.3671441,26.8544477 33.8459541,26.8979192 L32.9240989,26.9093001 L32.857106,27.8758026 L32.8232403,28.2164273 C32.7871677,28.5401625 32.7373312,28.9024616 32.6716528,29.2933086 C32.4843854,30.407724 32.2091593,31.520642 31.8323018,32.5497675 L31.7098447,32.8718363 C31.3762692,33.7168679 30.9865639,34.4504251 30.5420965,35.0502797 L30.404,35.2272976 L24.225,26.5192976 L24.9632549,23.9543178 L25.9707831,20.4009767 L26.9605242,16.8333509 L27.3970164,15.2178571 L27.6940994,14.0907815 L27.997015,12.8990354 L28.1821457,12.1270792 L28.3142517,11.5233033 L28.3559475,11.3248352 L28.4125945,11.1016833 C28.4838152,10.8329366 28.5742421,10.5314015 28.6852093,10.2055829 C29.0024921,9.2739867 29.4181024,8.3429117 29.9397995,7.48070558 C31.2402043,5.3315336 32.954133,3.98883139 35.1567825,3.75283323 L35.402671,3.72648803 L35.7188053,3.51707897 L35.8919434,3.41124746 L36.0004455,3.3471186 C36.3270258,3.15621258 36.6886124,2.96474885 37.0727314,2.78652947 C37.9121632,2.39705901 38.7329494,2.12943166 39.4713687,2.03612597 C41.0444604,1.83735215 41.9927411,2.40278658 42.421679,4.18452838 Z"></path>
                <path fill="url(#linearGradient-3)" id="椭圆形" d="M32.5003041,106.284809 C49.9135919,106.284809 64.0298507,88.3616224 64.0298507,66.252251 C64.0298507,49.7755639 50.1116083,34.1926386 38.9098748,28.0513131 C35.0804747,25.951853 28.342224,12.1857993 23.9059355,12.1857993 C6.4926477,12.1857993 0.970149254,44.1428797 0.970149254,66.252251 C0.970149254,88.3616224 15.0870163,106.284809 32.5003041,106.284809 Z"></path>
                <path fill="#000000" id="椭圆形备份" d="M23.9066492,11.2353043 C16.4166765,11.2353043 10.6684581,16.6555006 6.61798893,26.2641234 L6.27496259,27.0979483 C6.21848415,27.2386191 6.16235193,27.3801375 6.10656581,27.5224999 L5.77600118,28.3867737 C5.5039899,29.1153941 5.24062456,29.8649351 4.98588914,30.6349478 C1.69586986,40.5799983 0.000713733326,53.6831739 0.000713733326,66.252251 C0.000713733326,88.8404756 14.4888227,107.235304 32.5010179,107.235304 C50.513104,107.235304 65.0007137,88.8406192 65.0007137,66.252251 C65.0007137,57.2157597 60.6929737,47.6662894 54.2982888,39.8560471 L53.651946,39.0809037 C49.624282,34.3376324 44.8311498,30.2842995 39.7933361,27.4490582 L39.3048968,27.1769263 L39.1441849,27.0776239 L38.9801814,26.9647997 L38.8118613,26.8373444 C38.7833913,26.814821 38.7546988,26.7916417 38.7257623,26.7677834 L38.5490456,26.6163012 L38.36545,26.4474141 L38.1739504,26.2600129 L37.9735219,26.0529879 L37.6538953,25.7032292 L37.3084132,25.3030766 L37.0620194,25.0064625 L36.6657575,24.5139992 L36.2344153,23.961157 L35.5987441,23.1236395 L34.6953144,21.9029129 L32.6693419,19.1127311 L31.7284926,17.84148 L31.2833687,17.2526974 L30.64503,16.4267931 L30.0394772,15.668243 L29.6526395,15.199201 L29.2783479,14.758953 C29.2169664,14.6879524 29.156074,14.6181326 29.0956536,14.549484 L28.7386619,14.1515709 C28.5628637,13.9595656 28.3910107,13.77793 28.2226471,13.6064074 L27.8904376,13.27677 C26.4152163,11.853395 25.1980316,11.2353043 23.9066492,11.2353043 Z M23.9234386,13.2353043 C24.6607181,13.2353043 25.5512428,13.7715901 26.7098599,14.9250789 L27.0182648,15.240043 L27.3392859,15.5833281 C27.3938659,15.64292 27.4489904,15.7037053 27.504669,15.7656907 L27.8454636,16.1520555 L28.2000071,16.5675394 L28.5687524,17.0124614 L28.9521526,17.4871407 L29.5557221,18.2556532 L29.977742,18.8061227 L30.6413647,19.6898167 L31.104836,20.3180715 L33.1685431,23.1595606 L33.7545591,23.9550857 L34.4621359,24.898309 L34.943259,25.5235908 L35.3868515,26.0835893 L35.6639292,26.4229281 L35.9276259,26.7366647 L36.1792615,27.026164 L36.4201557,27.2927911 L36.7642438,27.6528322 L36.9840584,27.8682505 L37.1977506,28.0655742 L37.4066403,28.2461681 L37.6120472,28.4113973 L37.815291,28.5626268 L38.0176915,28.7012216 L38.2205684,28.8285467 L38.4252414,28.9459671 C51.4838411,36.1039226 63.0007137,51.9678995 63.0007137,66.2371803 C63.0007137,87.8210979 49.2826579,105.235304 32.5010173,105.235304 C15.7192539,105.235304 2.00071373,87.8209473 2.00071373,66.2371803 C2.00071373,37.0892918 9.89361982,13.2353043 23.9234386,13.2353043 Z"></path>
            </g>
            <g transform="translate(0.000000, 3.730000)" id="形状-">
                <polygon points="261.904532 81.5664044 270.561333 70.2781482 267.631532 84.7004044 273.669817 83.0980972 271.529532 90.7514044 283.590965 90.7516924 274.211532 97.9904044 283.497188 101.844992 270.5321 106.231845 269.891083 104.337354 277.820532 101.653404 270.25923 98.5159356 277.726532 92.7514044 268.893592 92.7516924 270.801532 85.9284044 265.031113 87.4601959 266.876532 78.3684044 259.905179 87.4607044 259.904532 82.0864044 258.397039 84.9760749 256.624025 84.0506448 261.905179 73.9325819" fill="#000000" id="路径-3"></polygon>
                <polygon points="22.904532 91.5664044 31.5613328 80.2781482 28.631532 94.7004044 34.6698173 93.0980972 32.529532 100.751404 44.5909649 100.751692 35.211532 107.990404 44.4971878 111.844992 31.5321005 116.231845 30.8910826 114.337354 38.820532 111.653404 31.2592301 108.515936 38.726532 102.751404 29.8935922 102.751692 31.801532 95.9284044 26.031113 97.4601959 27.876532 88.3684044 20.9051791 97.4607044 20.904532 92.0864044 19.3970391 94.9760749 17.624025 94.0506448 22.9051791 83.9325819" transform="translate(31.107495, 98.254996) scale(-1, 1) translate(-31.107495, -98.254996)" fill="#000000" id="路径-3备份"></polygon>
                <path fill="#F3D401" id="多边形-3-拷贝-12" d="M1,175.139319 C3.88957688,173.044376 5.76780186,168.637771 6.63467492,161.919505 C7.50154799,168.637771 9.37977296,173.044376 12.2693498,175.139319 C9.37977296,177.234262 7.50154799,181.640867 6.63467492,188.359133 C5.76780186,181.640867 3.88957688,177.234262 1,175.139319 Z"></path>
                <path fill="#000000" id="多边形-3-拷贝-12备份" d="M5.64289706,161.791533 C4.80786765,168.263011 3.03108274,172.431622 0.413032429,174.329708 C-0.137677476,174.728973 -0.137677476,175.549665 0.413032429,175.948929 C3.03108274,177.847016 4.80786765,182.015627 5.64289706,188.487104 C5.79292349,189.649809 7.47642635,189.649809 7.62645279,188.487104 C8.4614822,182.015627 10.2382671,177.847016 12.8563174,175.948929 C13.4070273,175.549665 13.4070273,174.728973 12.8563174,174.329708 C10.2382671,172.431622 8.4614822,168.263011 7.62645279,161.791533 C7.47642635,160.628828 5.79292349,160.628828 5.64289706,161.791533 Z M6.635,167.275148 L6.6802915,167.448494 C7.58779433,170.803517 8.88845892,173.33311 10.6034784,175.03045 L10.717,175.139148 L10.6034784,175.248188 C8.88845892,176.945528 7.58779433,179.475121 6.6802915,182.830144 L6.634,183.002148 L6.58905834,182.830144 C5.68155551,179.475121 4.38089092,176.945528 2.66587141,175.248188 L2.552,175.139148 L2.66587141,175.03045 C4.38089092,173.33311 5.68155551,170.803517 6.58905834,167.448494 L6.635,167.275148 Z"></path>
                <path fill="#F3D401" id="多边形-3-拷贝-13" d="M17.5789474,145.448916 C21.1909185,142.992776 23.5386997,137.755418 24.622291,129.736842 C25.7781218,137.755418 28.1620227,142.992776 31.7739938,145.448916 C28.1620227,147.905057 25.7781218,153.178535 24.622291,161.26935 C23.5386997,153.178535 21.1909185,147.905057 17.5789474,145.448916 Z"></path>
                <path fill="#000000" id="多边形-3-拷贝-13备份" d="M23.6312986,129.602924 C22.5820053,137.367695 20.3445061,142.359039 17.0166373,144.62199 C16.4330507,145.018829 16.4330507,145.879004 17.0166373,146.275843 C20.3433179,148.537986 22.5815977,153.565506 23.6311406,161.402093 C23.7853247,162.553335 25.4479767,162.560618 25.6122405,161.410771 C26.732175,153.57123 29.0065245,148.540093 32.3363038,146.275843 C32.9198905,145.879004 32.9198905,145.018829 32.3363038,144.62199 C29.0053216,142.356922 26.7317377,137.361927 25.6120614,129.594173 C25.4465522,128.445953 23.786655,128.453287 23.6312986,129.602924 Z M24.644,135.066148 L24.6846766,135.226714 C25.8764138,139.818173 27.6444987,143.191656 30.0166237,145.33487 L30.147,145.449148 L30.0163036,145.564423 C27.643643,147.713138 25.8757643,151.107529 24.6842646,155.735684 L24.644,155.894148 L24.6072889,155.742206 C23.4528999,151.111977 21.7054987,147.715444 19.3362949,145.565144 L19.205,145.448148 L19.3359795,145.334145 C21.6200616,143.265936 23.3266513,140.05324 24.48092,135.707644 L24.644,135.066148 Z"></path>
                <path fill="#F3D401" id="多边形-3-拷贝-14" d="M271.309598,146.718266 C274.199174,144.623323 276.077399,140.216718 276.944272,133.498452 C277.811146,140.216718 279.68937,144.623323 282.578947,146.718266 C279.68937,148.813209 277.811146,153.219814 276.944272,159.93808 C276.077399,153.219814 274.199174,148.813209 271.309598,146.718266 Z"></path>
                <path fill="#000000" id="多边形-3-拷贝-14备份" d="M275.952495,133.370481 C275.117465,139.841959 273.34068,144.010569 270.72263,145.908656 C270.17192,146.30792 270.17192,147.128612 270.72263,147.527877 C273.34068,149.425963 275.117465,153.594574 275.952495,160.066052 C276.102521,161.228757 277.786024,161.228757 277.93605,160.066052 C278.77108,153.594574 280.547865,149.425963 283.165915,147.527877 C283.716625,147.128612 283.716625,146.30792 283.165915,145.908656 C280.547865,144.010569 278.77108,139.841959 277.93605,133.370481 C277.786024,132.207776 276.102521,132.207776 275.952495,133.370481 Z M276.944,138.854148 L276.989889,139.027441 C277.897392,142.382464 279.198056,144.912057 280.913076,146.609397 L281.026,146.717148 L280.913076,146.827135 C279.198056,148.524476 277.897392,151.054068 276.989889,154.409092 L276.944,154.581148 L276.898656,154.409092 C275.991153,151.054068 274.690488,148.524476 272.975469,146.827135 L272.862,146.718148 L272.975469,146.609397 C274.690488,144.912057 275.991153,142.382464 276.898656,139.027441 L276.944,138.854148 Z"></path>
                <path fill="#F3D401" id="多边形-4-拷贝-4" d="M54.6687307,19.504644 C59.9422085,16.4705882 63.4097007,9.96904025 65.0712074,0 C66.6604747,9.96904025 70.127967,16.4705882 75.4736842,19.504644 C70.127967,22.5386997 66.6604747,29.0402477 65.0712074,39.0092879 C63.4097007,29.0402477 59.9422085,22.5386997 54.6687307,19.504644 L54.6687307,19.504644 Z"></path>
                <path fill="#000000" id="多边形-4-拷贝-4备份" d="M64.0848135,-0.164398987 C62.4677899,9.53774254 59.1391642,15.7789158 54.1700365,18.637866 C53.5016287,19.0224293 53.5016287,19.9868586 54.1700365,20.371422 C59.1391642,23.2303722 62.4677899,29.4715454 64.0848135,39.1736869 C64.271168,40.291814 65.8802798,40.2861348 66.0587372,39.1667202 C67.6047454,29.4690323 70.9306484,23.2329641 75.9672897,20.3743299 C76.6424824,19.9911124 76.6424824,19.0181755 75.9672897,18.634958 C70.9306484,15.7763238 67.6047454,9.54025567 66.0587372,-0.157432285 C65.8802798,-1.27684691 64.271168,-1.28252606 64.0848135,-0.164398987 Z M65.056,4.951 L65.1705842,5.39812902 C66.8822641,11.9250874 69.6460453,16.6067983 73.4885305,19.4108774 L73.62,19.504 L73.4885305,19.5984105 C69.6460453,22.4024897 66.8822641,27.0842005 65.1705842,33.6111589 L65.056,34.057 L64.9381678,33.6066533 C63.1931616,27.0829754 60.436164,22.4043664 56.6398246,19.6011176 L56.505,19.504 L56.6398246,19.4081703 C60.436164,16.6049215 63.1931616,11.9263126 64.9381678,5.40263459 L65.056,4.951 Z"></path>
            </g>
            <g fill="#000000" transform="translate(310.080000, 0.000000)" id="文字">
                <path id="罩" d="M35.07,244.19 L35.07,237.4 L62.93,237.4 L62.93,232.29 L35.07,232.29 L35.07,228.79 L56.35,228.79 L56.35,208.42 L34.3,208.42 L34.3,205.27 L59.5,205.27 L59.5,200.79 L34.3,200.79 L34.3,197.78 L59.29,197.78 L59.29,182.52 L4.83,182.52 L4.83,197.78 L27.72,197.78 L27.72,208.42 L7.56,208.42 L7.56,228.79 L28.49,228.79 L28.49,232.29 L0.91,232.29 L0.91,237.4 L28.49,237.4 L28.49,244.19 L35.07,244.19 Z M36.68,192.88 L26.67,192.88 L26.67,187.35 L36.68,187.35 L36.68,192.88 Z M20.72,192.88 L11.06,192.88 L11.06,187.35 L20.72,187.35 L20.72,192.88 Z M52.78,192.88 L42.63,192.88 L42.63,187.35 L52.78,187.35 L52.78,192.88 Z M49.77,216.47 L13.79,216.47 L13.79,212.9 L49.77,212.9 L49.77,216.47 Z M49.77,224.31 L13.79,224.31 L13.79,220.74 L49.77,220.74 L49.77,224.31 Z"></path>
                <path id="戴" d="M55.93,64.12 C60.83,64.12 62.79,61.6 63.84,52.57 C62.23,51.87 60.27,50.47 58.94,49.07 C58.59,55.58 57.89,57.96 56.56,57.96 C54.53,57.96 52.64,55.3 50.96,50.68 C55.44,43.68 58.17,35.07 60.06,24.99 L53.97,23.66 C52.78,30.45 51.03,36.61 48.58,42.07 C47.25,35.7 46.13,27.79 45.5,19.11 L62.37,19.11 L62.37,13.93 L45.22,13.93 C45.01,9.38 44.87,4.69 44.94,0 L38.57,0 C38.64,4.62 38.71,9.38 38.99,13.93 L22.96,13.93 L22.96,10.43 L35.42,10.43 L35.42,5.39 L22.96,5.39 L22.96,0 L16.73,0 L16.73,5.39 L4.27,5.39 L4.27,10.43 L16.73,10.43 L16.73,13.93 L0,13.93 L0,19.11 L39.27,19.11 C40.11,30.94 41.65,41.65 44.1,49.63 C41.16,53.48 37.59,56.63 33.25,59.15 C34.79,60.34 36.68,62.44 37.59,63.98 C41.02,61.81 44.1,59.29 46.76,56.35 C49.14,61.25 52.15,64.12 55.93,64.12 Z M54.88,13.3 L59.64,9.59 C57.89,7 53.97,3.64 50.68,1.33 L46.34,4.76 C49.56,7.21 53.34,10.78 54.88,13.3 Z M37.87,52.85 L37.87,48.51 L28.42,48.51 L28.42,45.22 L36.61,45.22 L36.61,41.23 L28.42,41.23 L28.42,38.22 L35.42,38.22 L35.42,21.98 L3.99,21.98 L3.99,38.22 L10.92,38.22 L10.92,41.23 L2.73,41.23 L2.73,45.22 L10.92,45.22 L10.92,48.51 L0.7,48.51 L0.7,52.85 L37.87,52.85 Z M17.01,28.49 L9.24,28.49 L9.24,25.34 L17.01,25.34 L17.01,28.49 Z M30.03,28.49 L22.19,28.49 L22.19,25.34 L30.03,25.34 L30.03,28.49 Z M17.01,34.93 L9.24,34.93 L9.24,31.71 L17.01,31.71 L17.01,34.93 Z M30.03,34.93 L22.19,34.93 L22.19,31.71 L30.03,31.71 L30.03,34.93 Z M23.03,41.23 L16.17,41.23 L16.17,38.22 L23.03,38.22 L23.03,41.23 Z M23.03,48.51 L16.17,48.51 L16.17,45.22 L23.03,45.22 L23.03,48.51 Z M5.74,64.68 C9.52,62.3 14.07,58.52 17.01,55.02 L11.48,53.2 C9.03,56 4.97,58.87 1.12,60.9 C2.38,61.67 4.69,63.63 5.74,64.68 Z M28,63.56 L33.25,60.83 C31.57,58.59 28.14,55.44 25.48,53.27 L20.51,55.72 C23.17,58.03 26.46,61.46 28,63.56 Z"></path>
                <path id="口" d="M12.25,152.72 L12.25,146.91 L51.45,146.91 L51.45,152.44 L58.52,152.44 L58.52,97 L5.53,97 L5.53,152.72 L12.25,152.72 Z M51.45,140.26 L12.25,140.26 L12.25,103.58 L51.45,103.58 L51.45,140.26 Z"></path>
            </g>
        </g>
    </g>
</svg>